<svg width="850.506409" height="712.224121" viewBox="0 0 850.506 712.224" fill="none" xmlns="http://www.w3.org/2000/svg" xmlns:xlink="http://www.w3.org/1999/xlink">
	<defs>
		<linearGradient x1="41.823288" y1="296.263916" x2="834.078491" y2="467.201050" id="paint_linear_8_508_0" gradientUnits="userSpaceOnUse">
			<stop offset="0.006666" stop-color="#FF9C37"/>
			<stop offset="0.996700" stop-color="#FF7300"/>
		</linearGradient>
		<linearGradient x1="513.091248" y1="-230.656464" x2="244.037109" y2="998.444519" id="paint_linear_8_508_1" gradientUnits="userSpaceOnUse">
			<stop stop-color="#FFDF00"/>
			<stop offset="1.000000" stop-color="#FFB800"/>
		</linearGradient>
	</defs>
	<g opacity="0.500000">
		<path id="Vector" d="M92.42 647.25C124.63 677.8 166.02 699.72 209.66 708.18C246.96 715.27 285.3 712.96 321.24 701.82C331.6 698.43 341.61 693.63 351.64 687.17C396.89 659.14 442.35 610.24 501.26 603.42C574.06 595.3 696.68 622.21 790.54 547.62C817.74 526.29 836.33 494.14 845.41 459.93C852.73 432.31 851.56 402.51 845.65 374.68C836.21 329.48 816.01 287.93 789.15 249.58C773.98 227.7 756.24 206.93 738.23 187.43C701.09 147.51 659.42 111.59 613.98 80.83C544.99 34.68 464.73 0.69 381.89 0C363.31 -0.05 344.46 1.18 326.32 5.21C303.72 9.94 282.47 17.62 261.44 27.33C232.72 40.36 205.85 57.11 180.86 75.92C93.5 141.96 28.29 239.03 6.67 347.86C-16.84 471.55 24.11 582.66 92.42 647.25Z" fill="url(#paint_linear_8_508_0)" fill-opacity="1.000000" fill-rule="nonzero"/>
		<path id="Vector" d="M92.42 647.25C124.63 677.8 166.02 699.72 209.66 708.18C246.96 715.27 285.3 712.96 321.24 701.82C331.6 698.43 341.61 693.63 351.64 687.17C396.89 659.14 442.35 610.24 501.26 603.42C574.06 595.3 696.68 622.21 790.54 547.62C817.74 526.29 836.33 494.14 845.41 459.93C852.73 432.31 851.56 402.51 845.65 374.68C836.21 329.48 816.01 287.93 789.15 249.58C773.98 227.7 756.24 206.93 738.23 187.43C701.09 147.51 659.42 111.59 613.98 80.83C544.99 34.68 464.73 0.69 381.89 0C363.31 -0.05 344.46 1.18 326.32 5.21C303.72 9.94 282.47 17.62 261.44 27.33C232.72 40.36 205.85 57.11 180.86 75.92C93.5 141.96 28.29 239.03 6.67 347.86C-16.84 471.55 24.11 582.66 92.42 647.25Z" fill="url(#paint_linear_8_508_1)" fill-opacity="1.000000" fill-rule="nonzero"/>
	</g>
	<path id="Vector" d="M503.37 268.73C582.53 347.87 582.53 476.19 503.37 555.34C424.2 634.48 295.85 634.48 216.69 555.34C137.52 476.19 137.52 347.87 216.69 268.73C295.85 189.58 424.2 189.58 503.37 268.73Z" fill="#553E93" fill-opacity="1.000000" fill-rule="evenodd"/>
	<path id="Vector" d="M378.13 210.18C378.94 210.72 379.8 211.26 380.71 211.8C380.8 211.21 423.42 224.73 427.8 226.71C440.46 232.5 448.23 234.58 434.36 238.96C440.37 237.06 454.02 274.12 463.55 272.58C472.86 271.09 475.62 281.57 478.06 288.76C479.37 292.55 483.44 294.81 481.9 299.38C481.41 300.82 474.76 303.8 475.26 304.8C478.06 310.09 490.76 310.72 490.85 318.54C489.63 320.48 487.78 321.43 485.25 321.34C479.37 323.73 484.93 328.48 486.06 332.18C488.77 341.08 497.32 348.99 503.46 338.87C509.66 328.7 495.46 318.72 504.1 308.32C509.16 302.22 522.63 313.16 519.42 301.54C518.52 298.2 504.46 283.47 512.23 281.3C512.59 281.21 512.87 280.44 513.05 279.18C490 252.56 459.67 231.64 423.82 219.76C408.73 214.69 393.36 211.53 378.13 210.18Z" fill="#786AB5" fill-opacity="1.000000" fill-rule="nonzero"/>
	<path id="Vector" d="M540.44 319.66C539.44 317.77 529.45 328.75 527.37 329.92C519.78 334.12 518.11 325.85 511.74 334.58C510.61 336.11 499.08 351.39 499.03 349.71C499.26 355.41 496.91 361.01 499.62 366.48C502.06 371.36 496.32 375.79 496.64 380.94C497.09 387.72 490.9 392.33 492.48 399.06C493.84 404.89 497.36 409.18 497.36 415.37C497.36 425.27 495.6 429.79 503.55 436.88C508.66 441.45 515.35 457.22 524.35 448.31C526.02 446.69 542.43 433.54 541.48 432.5C547.31 438.69 542.15 434.62 550.47 434.26C552.73 434.17 548.8 491.29 545.36 489.98C545.9 490.2 546.54 490.11 547.26 489.84C549.16 485.32 550.88 480.67 552.46 475.92C570.27 422.2 564.35 366.34 540.44 319.66Z" fill="#786AB5" fill-opacity="1.000000" fill-rule="nonzero"/>
	<path id="Vector" d="M445.56 509.45C445.61 503.62 434.72 498.16 428.8 498.43C416.1 498.92 412.75 494.86 400.95 491.79C391.06 489.21 392.59 472.35 377.54 471.63C369.54 471.22 354.44 449.49 346.53 456C341.29 460.29 331.26 448.77 327.73 448.72C319.64 448.63 326.2 453.42 320.91 447.41C317.43 443.43 307.84 451.79 305.85 454.14C301.92 458.71 284.88 451.84 282.26 445.29C281.31 442.94 286.78 433.58 282.71 426.94C281.18 424.36 269.88 426.26 268.12 424.55C265.76 422.24 274.17 413.84 273.22 412.07C269.29 404.75 256.36 423.1 250.71 408.37C246.15 396.39 252.11 391.87 253.29 380.35C253.83 374.93 263.1 372.26 267.57 374.21C274.76 377.37 273.81 374.43 279.28 373.84C283.57 373.39 288.18 378.27 292.3 379C297.18 379.85 293.83 393.59 298.44 396.89C301.11 398.79 301.06 378.41 301.25 377.91C304.18 369.64 316.97 370.41 319.05 363.45C324.12 346.33 335.69 347.64 349.74 341.58C356.43 338.69 372.98 335.35 377.13 328.79C384.95 316.59 364.43 298.34 359.1 289.71C359.05 289.62 354.35 294.99 353.27 295.04C349.29 295.22 345.59 272.81 337.99 285.68C336.55 288.12 330.99 288.85 334.06 292.46C340.12 299.51 328.36 301.23 324.7 300.19C321 299.19 302.74 288.62 309.16 282.7C322.26 270.68 325.2 276.92 338.81 276.83C354.35 276.78 354.94 291.38 367.82 275.74C371.39 271.4 348.12 259.02 352.73 253.56C369 234.12 377.9 277.28 384 284.73C392.91 295.67 398.65 289.89 397.93 277.82C397.61 272.13 409.68 266.84 410.54 260.69C410.72 259.43 402.72 248.13 401.54 247.36C397.34 244.65 396.39 241.81 394.22 239.14C391.51 235.75 387.26 240.81 384.82 237.78C383.69 236.38 363.26 237.15 361.09 237.2C350.38 236.79 338.35 237.15 327.51 237.29C323.08 237.11 299.57 248.58 298.94 239.19C298.62 234.53 304.23 226.35 294.24 230.15C291.03 231.37 289.04 229.56 289.67 229.42C282.8 230.83 269.92 235.62 264.41 240.59C261.34 243.34 268.66 244.61 269.15 246.96C270.1 251.48 258.67 259.93 256.14 262.86C247.05 273.35 247.46 287.26 235.21 297.43C221.06 309.18 220.29 326.4 220.16 342.62C220.11 350.48 213.33 353.78 217.63 362.68C221.24 370.28 228.02 373.94 229.15 383.15C229.88 389.21 225.13 394.81 227.44 400.73C230.24 408.01 235.62 414.42 242.17 417.86C256.18 425.22 265.36 430.74 274.35 444.2C285.47 460.92 305.36 453.6 298.85 470.5C296.09 477.6 289.13 480.99 286.28 488.58C282.85 497.66 289.45 504.26 293.65 511.62C297.9 519.08 299.48 527.98 306.94 533.04C312.27 536.66 322.04 539.68 323.39 547.05C325.56 558.8 315.66 573.44 316.75 584.19C317.47 591.42 317.61 598.83 323.89 603.58C335.24 612.07 332.52 600.24 339.57 594.63C346.17 589.39 353.95 590.93 361.5 588.85C368.41 586.95 360.18 584.37 362.99 582.84C368.91 579.49 372.43 584.51 378.13 579.45C383.28 574.84 390.24 573.48 392.68 566.25C396.61 554.42 414.47 558.75 421.88 549.53C426.45 543.89 428.43 537.83 430.51 530.96C433 522.47 445.47 518.58 445.56 509.45Z" fill="#786AB5" fill-opacity="1.000000" fill-rule="nonzero"/>
	<path id="Vector" d="M321.45 143.03C319.1 147.18 295.37 183.6 300.34 219.21L326.15 209.95L337.95 161.96L321.45 143.03Z" fill="#FDAD9B" fill-opacity="1.000000" fill-rule="nonzero"/>
	<path id="Vector" d="M424.59 128.11C424.59 128.11 408.73 99.92 370.08 107.73C331.44 115.51 310.38 170.27 320.86 278.72C320.86 278.72 382.24 254.55 462.02 274.03C462.02 273.98 448.91 168.96 424.59 128.11Z" fill="#FF8548" fill-opacity="1.000000" fill-rule="nonzero"/>
	<path id="Vector" d="M454.06 116.73L426.9 143.57C426.9 143.57 357.29 162.19 337.95 161.96C318.6 161.73 311.01 147.73 311.01 147.73C311.01 147.73 327.32 122.15 360.37 110.58C363.48 109.5 366.69 108.55 370.13 107.73C375.82 106.38 381.61 105.61 387.39 105.25C421.52 103.22 454.06 116.73 454.06 116.73Z" fill="#FF8548" fill-opacity="1.000000" fill-rule="nonzero"/>
	<path id="Vector" d="M454.06 116.73C458.4 121.38 451.71 126.49 444.21 133.9C436.71 141.31 428.98 145.65 426.9 143.57C424.82 141.49 429.25 133.81 436.75 126.4C444.25 118.94 452.07 114.56 454.06 116.73Z" fill="#66192D" fill-opacity="1.000000" fill-rule="nonzero"/>
	<path id="Vector" d="M430.51 143.66C430.51 143.66 430.11 138.28 436.93 131.46C441.05 127.35 446.2 124.63 449.68 123.14C451.76 122.24 454.15 123.23 454.97 125.36L457.14 130.92L447.01 137.38L430.51 143.66Z" fill="#FDAD9B" fill-opacity="1.000000" fill-rule="nonzero"/>
	<path id="Vector" d="M382.56 243.07C382.56 243.07 466.31 198.11 496.37 247.14C518.61 283.42 485.2 317.23 361.27 313.79C361.27 313.79 349.02 308.1 352 278.63C353.13 267.02 382.56 243.07 382.56 243.07Z" fill="#FFD00E" fill-opacity="1.000000" fill-rule="evenodd"/>
	<path id="Vector" d="M382.56 243.07C382.56 243.07 271.01 197.84 248.91 226.13C223.55 258.62 247.87 313.84 365.47 294.09L379.8 278.68L382.56 243.07Z" fill="#FFD00E" fill-opacity="1.000000" fill-rule="evenodd"/>
	<path id="Vector" d="M351.24 286.77C351.24 286.77 330.67 287.58 321 292.28C311.32 296.98 316.48 308.41 336.09 308.1C355.71 307.78 354.22 304.89 354.22 304.89C354.22 304.89 350.51 294.9 351.24 286.77Z" fill="#66192D" fill-opacity="1.000000" fill-rule="nonzero"/>
	<path id="Vector" d="M361.09 314.02C347.35 304.3 351.69 278.91 351.73 278.63L351.78 278.5L351.91 278.45L436.62 247.95L436.8 248.4L352.23 278.86C351.91 280.85 348.43 304.44 361.41 313.66L361.09 314.02Z" fill="#020202" fill-opacity="1.000000" fill-rule="nonzero"/>
	<path id="Vector" d="M377.54 245.24C370.72 245.24 365.16 243.52 360.59 240.13C352 233.72 350.42 223.55 351.69 216.73L359.87 212.03C360.28 209.81 376.09 218.08 376.05 218.08C376.14 218.13 383.6 220.25 409.5 207.15C427.53 198.02 436.62 185.05 437.29 167.52C437.79 154.32 431.82 146.87 430.42 143.66C430.24 143.25 439.15 134.39 438.88 133.49L445.57 130.15C445.34 129.38 451.98 126.8 451.89 126.58L457.05 130.92C459.58 136.75 465 150.12 464.32 168.56C463.6 187.72 455.6 214.11 421.7 231.28C403.3 240.59 388.8 245.24 377.54 245.24Z" fill="#FDAD9B" fill-opacity="1.000000" fill-rule="nonzero"/>
	<path id="Vector" d="M372.07 246.33L299.75 246.33C298.26 246.33 296.91 245.38 296.41 243.98L281.4 199.56C280.64 197.3 282.35 194.99 284.75 194.99L354.26 194.99C357.43 194.99 360.23 196.98 361.22 199.96L375.37 241.81C376.14 244.02 374.47 246.33 372.07 246.33Z" fill="#66192D" fill-opacity="1.000000" fill-rule="nonzero"/>
	<path id="Vector" d="M367.51 246.33L295.23 246.33C293.7 246.33 292.39 245.38 291.89 243.98L276.88 199.56C276.12 197.3 277.83 194.99 280.23 194.99L349.74 194.99C352.91 194.99 355.71 196.98 356.7 199.96L370.85 241.81C371.62 244.02 369.9 246.33 367.51 246.33Z" fill="#66192D" fill-opacity="1.000000" fill-rule="nonzero"/>
	<path id="Vector" d="M316.88 219.17C316.88 217.5 318.83 216.77 320.54 216.77C322.26 216.77 325.07 218.63 325.07 220.98C325.07 223.51 323.03 223.87 321.31 223.87C319.6 223.91 316.88 221.34 316.88 219.17Z" fill="#DEEBE9" fill-opacity="1.000000" fill-rule="nonzero"/>
	<path id="Vector" d="M394.13 240.04L295.19 240.04L295.19 246.33L396.21 246.33C397.38 246.33 398.33 245.38 398.33 244.2C398.29 241.9 396.43 240.04 394.13 240.04Z" fill="#66192D" fill-opacity="1.000000" fill-rule="nonzero"/>
	<path id="Vector" d="M362.4 217.45C362.35 217.31 358.83 204.17 356.52 200.05C354.26 196.03 351.46 195.22 351.46 195.22L351.6 194.77C351.73 194.81 354.63 195.62 356.98 199.83C359.28 203.98 362.76 216.77 362.9 217.31L362.4 217.45Z" fill="#66192D" fill-opacity="1.000000" fill-rule="nonzero"/>
	<path id="Vector" d="M373.07 240.27C370.4 240.27 369.72 239.1 369.68 239.05L369.68 239.01L364.03 222.33L364.48 222.2L370.08 238.82C370.17 238.91 370.81 239.77 373.02 239.77L373.02 240.27L373.07 240.27Z" fill="#66192D" fill-opacity="1.000000" fill-rule="nonzero"/>
	<path id="Vector" d="M442.54 206.74C442.13 206.74 441.72 206.65 441.36 206.42C439.6 205.39 439.64 202.13 441.45 198.92C442.31 197.43 443.4 196.26 444.57 195.49C445.84 194.72 447.01 194.54 447.87 195.08C449.63 196.12 449.59 199.38 447.78 202.58C446.33 205.11 444.25 206.74 442.54 206.74ZM446.79 195.76C446.29 195.76 445.75 195.94 445.11 196.35C444.07 196.98 443.08 198.11 442.31 199.42C440.77 202.04 440.59 204.89 441.86 205.61C443.12 206.33 445.47 204.75 447.01 202.13C448.55 199.51 448.73 196.66 447.46 195.94C447.28 195.81 447.01 195.76 446.79 195.76Z" fill="#F18C7E" fill-opacity="1.000000" fill-rule="nonzero"/>
	<path id="Vector" d="M387.94 105.16C383.19 105.02 379.58 104.53 376.86 101.36L368.41 91.51L365.97 88.66L351.51 71.81L359.1 91.51L363.67 103.35L365.11 107.1C366.11 109.63 364.79 110.81 363.89 113.79C363.53 115.01 361.04 122.42 367.51 122.47C375.6 122.51 385.86 113.2 388.07 105.16C388.03 105.16 387.98 105.16 387.94 105.16Z" fill="#FDAD9B" fill-opacity="1.000000" fill-rule="nonzero"/>
	<path id="Vector" d="M370.76 85.19C370.76 85.19 386.72 70 377.5 57.21C368.32 44.43 366.02 77.77 366.02 77.77L368.59 85.5L370.76 85.19Z" fill="#66192D" fill-opacity="1.000000" fill-rule="nonzero"/>
	<path id="Vector" d="M368.32 91.2C368.37 91.29 368.37 91.42 368.41 91.56C369.9 98.2 363.71 103.4 363.71 103.4L363.67 103.35L359.1 91.51C361.04 90.07 363.89 88.35 365.97 88.67C367.01 88.8 367.91 89.57 368.32 91.2Z" fill="#66192D" fill-opacity="1.000000" fill-rule="nonzero"/>
	<path id="Vector" d="M334.6 82.93C330.99 71.09 336.05 59.07 345.9 56.08C355.71 53.1 366.6 60.29 370.22 72.13C373.83 83.97 368.77 95.99 358.92 98.97C349.07 102 338.17 94.81 334.6 82.93Z" fill="#FDAD9B" fill-opacity="1.000000" fill-rule="nonzero"/>
	<path id="Vector" d="M366.83 70.45C366.83 70.45 361.77 74.11 357.52 71.04C353.27 67.97 350.24 65.03 340.75 69.78C331.21 74.52 320.82 72.4 318.87 67.07C316.93 61.73 321.49 57.62 327.46 57.89C333.43 58.16 326.2 54.91 330.35 49.31C334.51 43.7 345.09 49.49 350.29 46.69C355.53 43.88 374.15 41.49 377.5 57.3L366.83 70.45Z" fill="#66192D" fill-opacity="1.000000" fill-rule="nonzero"/>
	<path id="Vector" d="M370.81 73.62C369.59 75.47 367.24 76.1 365.56 75.02C363.89 73.93 363.53 71.54 364.75 69.64C365.97 67.79 368.32 67.16 369.99 68.24C371.67 69.32 372.03 71.72 370.81 73.62Z" fill="#FDAD9B" fill-opacity="1.000000" fill-rule="nonzero"/>
	<path id="Vector" d="M329.36 65.17C329 65.17 328.68 65.12 328.32 65.03C326.2 64.49 325.56 63.36 325.74 62.5C325.92 61.51 327.14 60.56 329.04 60.74C331.89 61.01 333.43 60.06 333.47 60.06L333.83 60.65C333.74 60.69 332.07 61.73 329 61.42C327.6 61.28 326.56 61.91 326.47 62.59C326.33 63.31 327.14 63.95 328.55 64.31C332.21 65.21 338.53 59.56 338.63 59.52L339.08 60.02C338.76 60.33 333.34 65.17 329.36 65.17Z" fill="#FFFFFF" fill-opacity="1.000000" fill-rule="nonzero"/>
	<path id="Vector" d="M345.81 51.93C341.92 51.93 338.49 50.26 338.17 49.94L338.72 49.49L338.44 49.71L338.67 49.49C339.03 49.8 344.68 52.51 349.52 50.62C351.15 49.98 352.55 49.26 353.95 48.54C356.75 47.05 359.19 45.78 361.99 46.32L361.86 47C359.33 46.5 356.98 47.73 354.26 49.13C352.86 49.85 351.42 50.62 349.79 51.25C348.48 51.7 347.12 51.93 345.81 51.93Z" fill="#FFFFFF" fill-opacity="1.000000" fill-rule="nonzero"/>
	<path id="Vector" d="M372.66 56.4C371.62 56.4 369.72 54.82 369.22 53.83C368.86 53.1 369.22 52.74 369.41 52.65C370.81 51.79 372.8 54.5 373.2 55.05L373.25 55.09L373.25 55.14C373.47 56 373.11 56.27 372.89 56.36C372.89 56.4 372.8 56.4 372.66 56.4ZM370.04 53.19C369.95 53.19 369.86 53.19 369.81 53.24C369.77 53.28 369.86 53.69 370.54 54.37C371.48 55.32 372.43 55.77 372.66 55.72C372.66 55.72 372.66 55.63 372.61 55.41C371.94 54.41 370.76 53.19 370.04 53.19Z" fill="#FFFFFF" fill-opacity="1.000000" fill-rule="nonzero"/>
	<path id="Vector" d="M482.49 275.43C481.09 275.43 479.78 275.06 478.56 274.39C476.53 273.21 475.12 271.18 474.67 268.69C474.22 266.21 474.72 263.54 476.03 261.24C478.83 256.4 484.53 254.41 488.68 256.81C492.89 259.25 494.02 265.12 491.22 270C489.86 272.35 487.83 274.07 485.43 274.93C484.48 275.29 483.44 275.43 482.49 275.43ZM484.8 256.72C481.81 256.72 478.65 258.53 476.84 261.69C475.62 263.81 475.17 266.25 475.58 268.51C475.98 270.73 477.2 272.53 479.01 273.57C480.82 274.61 482.99 274.75 485.11 274.03C487.28 273.26 489.14 271.68 490.4 269.51C492.93 265.12 491.98 259.75 488.23 257.62C487.19 256.99 486.02 256.72 484.8 256.72Z" fill="#66192D" fill-opacity="1.000000" fill-rule="nonzero"/>
	<path id="Vector" d="M363.89 131.37L363.85 130.19C384.59 129.61 392.09 111.8 392.19 111.62L393.27 112.07C393.18 112.25 391.33 116.82 386.76 121.52C382.51 125.86 375.1 131.05 363.89 131.37Z" fill="#66192D" fill-opacity="1.000000" fill-rule="nonzero"/>
	<path id="Vector" d="M373.79 141.35L373.16 140.36C373.25 140.32 383.87 133.58 385.22 121.56L386.4 121.7C384.95 134.26 373.88 141.26 373.79 141.35Z" fill="#66192D" fill-opacity="1.000000" fill-rule="nonzero"/>
	<path id="Vector" d="M325.25 159.52L329.52 146.65L330.63 147.02L326.36 159.89L325.25 159.52Z" fill="#66192D" fill-opacity="1.000000" fill-rule="evenodd"/>
	<path id="Vector" d="M287.01 190.25C286.78 190.25 286.56 190.16 286.42 189.98C285.52 188.8 284.52 187.63 283.57 186.5C283.3 186.18 283.35 185.68 283.66 185.41C283.98 185.14 284.48 185.19 284.75 185.5C285.74 186.63 286.69 187.85 287.64 189.03C287.91 189.34 287.82 189.84 287.51 190.07C287.32 190.16 287.19 190.25 287.01 190.25Z" fill="#FF8548" fill-opacity="1.000000" fill-rule="nonzero"/>
	<path id="Vector" d="M183.73 527.21C183.32 527.21 182.96 526.9 182.96 526.44C182.96 526.04 183.28 525.68 183.73 525.68C186.67 525.63 189.7 525.59 192.72 525.45C193.13 525.4 193.49 525.77 193.49 526.17C193.49 526.58 193.18 526.94 192.77 526.94C189.74 527.12 186.67 527.21 183.73 527.21ZM174.73 527.17C171.71 527.08 168.63 526.94 165.7 526.76C165.29 526.71 164.97 526.4 164.97 525.95C165.02 525.54 165.38 525.22 165.79 525.22C168.72 525.4 171.75 525.54 174.73 525.59C175.14 525.59 175.5 525.95 175.46 526.35C175.46 526.85 175.14 527.17 174.73 527.17ZM201.72 526.49C201.31 526.49 201 526.17 200.95 525.81C200.9 525.4 201.22 525.04 201.63 525C204.57 524.77 207.59 524.5 210.58 524.23C210.98 524.18 211.35 524.5 211.39 524.91C211.44 525.31 211.12 525.68 210.71 525.72C207.73 526.04 204.7 526.31 201.72 526.49ZM156.75 526.04C156.7 526.04 156.7 526.04 156.66 526.04C153.63 525.72 150.64 525.36 147.71 524.95C147.3 524.91 147.03 524.5 147.07 524.09C147.12 523.69 147.53 523.42 147.93 523.46C150.82 523.87 153.85 524.23 156.84 524.55C157.24 524.59 157.56 524.95 157.51 525.36C157.47 525.77 157.15 526.04 156.75 526.04ZM219.62 524.64C219.26 524.64 218.94 524.37 218.85 523.96C218.8 523.55 219.07 523.15 219.48 523.1C222.42 522.74 225.4 522.29 228.39 521.83C228.79 521.79 229.2 522.06 229.24 522.47C229.29 522.87 229.02 523.28 228.61 523.33C225.63 523.78 222.65 524.23 219.66 524.59C219.66 524.64 219.62 524.64 219.62 524.64ZM138.94 523.51C138.89 523.51 138.85 523.51 138.8 523.51C135.82 522.96 132.84 522.33 129.94 521.65C129.54 521.56 129.27 521.16 129.4 520.75C129.49 520.34 129.9 520.07 130.3 520.21C133.15 520.89 136.14 521.52 139.07 522.06C139.48 522.15 139.75 522.51 139.66 522.92C139.62 523.28 139.3 523.51 138.94 523.51ZM237.38 521.88C237.02 521.88 236.7 521.61 236.66 521.25C236.57 520.84 236.84 520.43 237.24 520.39C240.14 519.85 243.12 519.26 246.06 518.67C246.47 518.58 246.87 518.85 246.96 519.26C247.05 519.67 246.78 520.07 246.37 520.16C243.44 520.8 240.45 521.34 237.52 521.88C237.47 521.88 237.43 521.88 237.38 521.88ZM121.45 519.35C121.36 519.35 121.31 519.35 121.22 519.3C118.33 518.45 115.43 517.54 112.59 516.59C112.18 516.46 112 516.01 112.13 515.64C112.27 515.24 112.72 515.06 113.08 515.19C115.89 516.14 118.73 517.04 121.63 517.9C122.03 518.04 122.26 518.45 122.12 518.85C122.08 519.17 121.76 519.35 121.45 519.35ZM255.01 518.22C254.65 518.22 254.37 517.99 254.28 517.63C254.19 517.23 254.47 516.82 254.83 516.73C257.72 516.05 260.66 515.33 263.55 514.6C263.96 514.51 264.36 514.74 264.45 515.15C264.54 515.55 264.32 515.96 263.91 516.05C261.02 516.77 258.04 517.5 255.14 518.17C255.14 518.22 255.05 518.22 255.01 518.22ZM272.45 513.75C272.14 513.75 271.82 513.52 271.73 513.2C271.64 512.8 271.87 512.39 272.27 512.26C275.17 511.44 278.06 510.58 280.91 509.72C281.31 509.59 281.72 509.81 281.85 510.22C281.99 510.63 281.76 511.04 281.36 511.17C278.51 512.03 275.57 512.89 272.68 513.7C272.59 513.75 272.54 513.75 272.45 513.75ZM104.45 513.47C104.36 513.47 104.27 513.47 104.18 513.43C101.38 512.3 98.62 511.08 95.91 509.77C95.55 509.59 95.37 509.14 95.55 508.78C95.73 508.41 96.18 508.23 96.54 508.41C99.21 509.68 101.97 510.9 104.72 512.03C105.13 512.16 105.31 512.62 105.13 513.02C104.99 513.29 104.72 513.47 104.45 513.47ZM289.67 508.5C289.36 508.5 289.04 508.32 288.95 508.01C288.82 507.6 289.04 507.19 289.45 507.06C292.34 506.11 295.19 505.12 297.95 504.12C298.35 503.99 298.76 504.17 298.9 504.57C299.03 504.98 298.85 505.39 298.44 505.52C295.69 506.52 292.79 507.51 289.9 508.46C289.85 508.5 289.76 508.5 289.67 508.5ZM88.18 505.75C88.04 505.75 87.95 505.7 87.82 505.66C85.2 504.21 82.57 502.68 80.04 501.05C79.68 500.82 79.59 500.37 79.82 500.01C80.04 499.65 80.5 499.56 80.86 499.78C83.34 501.36 85.96 502.9 88.59 504.35C88.95 504.53 89.08 505.03 88.9 505.39C88.72 505.61 88.45 505.75 88.18 505.75ZM72.99 496.17C72.86 496.17 72.68 496.12 72.54 496.03C70.1 494.27 67.7 492.42 65.35 490.52C65.04 490.25 64.99 489.8 65.26 489.44C65.53 489.12 65.99 489.07 66.3 489.34C68.61 491.24 71 493.05 73.4 494.77C73.72 494.99 73.81 495.49 73.58 495.81C73.44 496.08 73.22 496.17 72.99 496.17ZM59.07 484.78C58.89 484.78 58.71 484.74 58.57 484.6C57.99 484.06 57.44 483.56 56.9 483.02C55.27 481.48 53.65 479.86 52.16 478.27C51.88 477.96 51.88 477.51 52.16 477.19C52.47 476.92 52.92 476.92 53.24 477.19C54.73 478.77 56.36 480.35 57.94 481.89C58.48 482.43 59.07 482.93 59.61 483.47C59.93 483.74 59.93 484.24 59.66 484.55C59.48 484.74 59.25 484.78 59.07 484.78ZM46.6 471.81C46.37 471.81 46.19 471.72 46.01 471.54C44.07 469.19 42.17 466.8 40.45 464.4C40.22 464.08 40.27 463.59 40.63 463.36C40.95 463.14 41.44 463.18 41.67 463.54C43.39 465.89 45.24 468.29 47.18 470.59C47.46 470.91 47.41 471.41 47.09 471.68C46.96 471.77 46.78 471.81 46.6 471.81ZM36.07 457.26C35.79 457.26 35.57 457.13 35.43 456.9C33.85 454.32 32.36 451.66 31 448.99C30.82 448.63 30.96 448.18 31.32 448C31.68 447.82 32.13 447.95 32.31 448.31C33.62 450.94 35.12 453.56 36.7 456.09C36.92 456.45 36.79 456.9 36.47 457.13C36.34 457.22 36.2 457.26 36.07 457.26ZM27.93 441.27C27.61 441.27 27.34 441.08 27.21 440.81C26.08 438.01 25.08 435.12 24.22 432.27C24.09 431.87 24.31 431.46 24.72 431.32C25.13 431.19 25.53 431.41 25.67 431.82C26.53 434.62 27.52 437.47 28.61 440.23C28.74 440.63 28.56 441.04 28.2 441.22C28.11 441.22 28.02 441.27 27.93 441.27ZM22.78 424.05C22.42 424.05 22.1 423.82 22.05 423.46C21.47 420.52 21.01 417.5 20.7 414.51C20.65 414.11 20.97 413.75 21.38 413.7C21.78 413.66 22.14 413.97 22.19 414.38C22.51 417.32 22.96 420.3 23.55 423.19C23.64 423.6 23.36 424 22.96 424.09C22.87 424.05 22.82 424.05 22.78 424.05ZM20.88 406.15C20.47 406.15 20.11 405.84 20.11 405.39C20.11 405.11 20.11 404.84 20.11 404.57C20.11 401.82 20.25 399.06 20.47 396.3C20.52 395.9 20.88 395.58 21.29 395.63C21.69 395.67 22.01 396.03 21.96 396.44C21.74 399.15 21.6 401.86 21.6 404.57C21.6 404.84 21.6 405.11 21.6 405.34C21.65 405.84 21.33 406.15 20.88 406.15ZM22.42 388.26C22.37 388.26 22.32 388.26 22.28 388.26C21.87 388.17 21.6 387.81 21.69 387.4C22.23 384.46 22.91 381.48 23.68 378.54C23.77 378.14 24.22 377.91 24.63 378C25.04 378.09 25.26 378.54 25.17 378.95C24.4 381.8 23.73 384.74 23.18 387.67C23.09 388.03 22.78 388.26 22.42 388.26ZM86.24 388.21C84.16 388.21 82.08 388.08 80 387.81C79.59 387.76 79.28 387.4 79.32 386.95C79.37 386.54 79.77 386.23 80.18 386.27C83.12 386.63 86.1 386.72 89.04 386.54C89.44 386.5 89.81 386.81 89.85 387.27C89.9 387.67 89.58 388.03 89.13 388.08C88.13 388.21 87.18 388.21 86.24 388.21ZM97.94 386.72C97.63 386.72 97.31 386.5 97.22 386.18C97.13 385.77 97.35 385.37 97.76 385.28C100.65 384.51 103.46 383.42 105.99 382.11C106.35 381.93 106.8 382.07 107.03 382.43C107.21 382.79 107.07 383.24 106.71 383.47C104.09 384.87 101.2 385.96 98.17 386.77C98.08 386.72 97.99 386.72 97.94 386.72ZM71.32 385.96C71.23 385.96 71.18 385.96 71.09 385.91C68.2 385.01 65.35 383.88 62.64 382.52C62.28 382.34 62.1 381.89 62.33 381.53C62.51 381.17 62.96 380.98 63.32 381.21C65.99 382.52 68.74 383.65 71.55 384.51C71.95 384.64 72.18 385.05 72.04 385.46C71.91 385.77 71.64 385.96 71.32 385.96ZM113.67 378.36C113.49 378.36 113.26 378.27 113.13 378.14C112.86 377.82 112.86 377.37 113.17 377.05C115.34 375.02 117.2 372.76 118.64 370.23C118.87 369.87 119.32 369.73 119.68 369.96C120.04 370.18 120.18 370.64 119.95 371C118.42 373.62 116.52 376.01 114.21 378.14C114.03 378.27 113.85 378.36 113.67 378.36ZM55.27 378C55.14 378 54.96 377.96 54.82 377.87C52.38 376.1 50.03 374.16 47.86 372.04C47.55 371.77 47.55 371.27 47.86 370.95C48.13 370.64 48.63 370.64 48.95 370.95C51.07 373.03 53.38 374.97 55.73 376.65C56.04 376.87 56.13 377.37 55.91 377.69C55.73 377.87 55.5 378 55.27 378ZM27.21 370.95C27.12 370.95 27.03 370.95 26.94 370.91C26.53 370.77 26.35 370.32 26.48 369.96C27.52 367.16 28.7 364.36 30.01 361.6C30.19 361.24 30.64 361.06 31 361.24C31.36 361.42 31.55 361.87 31.36 362.23C30.1 364.9 28.92 367.7 27.88 370.46C27.79 370.77 27.48 370.95 27.21 370.95ZM42.39 365.53C42.17 365.53 41.94 365.44 41.81 365.26C40 362.91 38.28 360.38 36.7 357.76C36.47 357.4 36.61 356.94 36.97 356.72C37.33 356.49 37.78 356.63 38.01 356.99C39.55 359.57 41.22 362.05 43.03 364.36C43.3 364.67 43.21 365.17 42.89 365.39C42.71 365.44 42.57 365.53 42.39 365.53ZM122.49 363.05C122.44 363.05 122.39 363.05 122.3 363.05C121.9 362.95 121.63 362.55 121.72 362.14C122.17 360.02 122.39 357.8 122.39 355.54C122.39 354.82 122.39 354.14 122.35 353.42C122.3 353.01 122.62 352.65 123.07 352.61C123.48 352.56 123.84 352.88 123.89 353.33C123.93 354.05 123.98 354.82 123.98 355.54C123.98 357.89 123.75 360.24 123.25 362.46C123.16 362.77 122.85 363.05 122.49 363.05ZM34.89 354.73C34.75 354.73 34.62 354.69 34.53 354.64C34.17 354.41 34.03 353.96 34.26 353.6C35.79 350.98 37.42 348.45 39.18 346.01C39.41 345.65 39.91 345.6 40.22 345.83C40.59 346.05 40.63 346.55 40.4 346.87C38.69 349.26 37.06 351.79 35.57 354.37C35.43 354.59 35.16 354.73 34.89 354.73ZM33.22 350.12C32.95 350.12 32.68 349.94 32.54 349.67C31.32 347 30.23 344.16 29.24 341.22C29.1 340.81 29.33 340.41 29.74 340.27C30.14 340.13 30.55 340.36 30.69 340.77C31.64 343.61 32.77 346.42 33.94 349.08C34.12 349.44 33.94 349.9 33.58 350.08C33.44 350.08 33.31 350.12 33.22 350.12ZM121.58 345.24C121.27 345.24 120.95 345.02 120.86 344.7C120.77 344.38 120.68 344.07 120.59 343.8C119.77 341.17 118.82 338.69 117.78 336.38C117.6 336.02 117.78 335.57 118.15 335.39C118.51 335.21 118.96 335.39 119.14 335.75C120.23 338.1 121.17 340.63 122.03 343.34C122.12 343.66 122.21 343.98 122.3 344.29C122.44 344.7 122.17 345.11 121.81 345.24C121.72 345.24 121.63 345.24 121.58 345.24ZM45.33 340.09C45.15 340.09 44.97 340.04 44.83 339.91C44.52 339.64 44.47 339.14 44.74 338.82C46.73 336.52 48.86 334.31 50.98 332.23C51.3 331.96 51.75 331.96 52.07 332.27C52.34 332.59 52.34 333.04 52.02 333.36C49.9 335.39 47.86 337.56 45.87 339.82C45.78 340 45.56 340.09 45.33 340.09ZM27.43 333.09C27.07 333.09 26.8 332.86 26.71 332.5C26.03 329.65 25.4 326.67 24.9 323.64C24.86 323.23 25.13 322.83 25.53 322.78C25.94 322.69 26.35 323.01 26.39 323.42C26.89 326.4 27.48 329.34 28.16 332.18C28.25 332.59 28.02 333 27.61 333.09C27.57 333.09 27.52 333.09 27.43 333.09ZM113.99 329.02C113.76 329.02 113.54 328.93 113.36 328.7C111.59 326.22 109.56 324.05 107.43 322.24C107.12 321.97 107.07 321.52 107.34 321.16C107.62 320.84 108.07 320.79 108.43 321.07C110.69 322.96 112.77 325.22 114.62 327.8C114.85 328.16 114.8 328.61 114.44 328.84C114.26 328.97 114.12 329.02 113.99 329.02ZM58.35 327.71C58.12 327.71 57.9 327.62 57.76 327.39C57.49 327.07 57.58 326.58 57.9 326.35C60.38 324.45 62.91 322.74 65.44 321.29C65.81 321.07 66.26 321.2 66.48 321.56C66.71 321.92 66.57 322.38 66.21 322.6C63.73 324.05 61.24 325.72 58.85 327.57C58.66 327.66 58.53 327.71 58.35 327.71ZM73.9 318.76C73.58 318.76 73.31 318.58 73.17 318.26C73.04 317.86 73.22 317.45 73.58 317.27C76.52 316.09 79.5 315.28 82.35 314.74C82.76 314.65 83.16 314.92 83.21 315.37C83.3 315.78 83.03 316.19 82.57 316.23C79.82 316.73 76.92 317.54 74.08 318.67C74.08 318.72 73.99 318.76 73.9 318.76ZM100.2 317.81C100.11 317.81 100.02 317.81 99.93 317.77C97.26 316.68 94.42 316.05 91.43 315.78C91.03 315.73 90.71 315.37 90.76 314.97C90.8 314.56 91.16 314.24 91.57 314.29C94.69 314.51 97.72 315.24 100.52 316.37C100.93 316.5 101.11 316.95 100.93 317.36C100.79 317.63 100.52 317.81 100.2 317.81ZM24.54 315.37C24.13 315.37 23.82 315.1 23.77 314.69C23.5 311.76 23.27 308.73 23.18 305.7C23.18 305.29 23.5 304.93 23.91 304.93C24.31 304.93 24.68 305.25 24.68 305.66C24.77 308.68 24.99 311.67 25.26 314.6C25.31 315.01 24.99 315.37 24.58 315.42C24.58 315.37 24.54 315.37 24.54 315.37ZM23.86 297.39C23.41 297.39 23.09 297.03 23.09 296.62C23.14 293.68 23.27 290.65 23.45 287.58C23.5 287.17 23.86 286.86 24.27 286.86C24.68 286.9 24.99 287.26 24.99 287.67C24.81 290.7 24.68 293.73 24.63 296.62C24.58 297.07 24.27 297.39 23.86 297.39ZM24.95 279.45C24.9 279.45 24.9 279.45 24.86 279.45C24.45 279.4 24.13 279.04 24.18 278.63C24.49 275.61 24.9 272.62 25.35 269.69C25.4 269.28 25.81 269.01 26.21 269.05C26.62 269.1 26.89 269.51 26.84 269.91C26.39 272.81 25.99 275.79 25.67 278.77C25.67 279.18 25.35 279.45 24.95 279.45ZM27.79 261.69C27.75 261.69 27.7 261.69 27.61 261.69C27.21 261.6 26.94 261.19 27.03 260.79C27.66 257.85 28.38 254.87 29.19 252.02C29.29 251.61 29.74 251.39 30.14 251.48C30.55 251.57 30.78 252.02 30.69 252.43C29.92 255.27 29.19 258.16 28.56 261.1C28.47 261.46 28.16 261.69 27.79 261.69ZM32.58 244.38C32.49 244.38 32.4 244.38 32.36 244.34C31.95 244.2 31.77 243.79 31.91 243.39C32.9 240.54 33.94 237.69 35.07 234.94C35.25 234.53 35.66 234.35 36.07 234.53C36.47 234.71 36.65 235.12 36.47 235.53C35.34 238.24 34.3 241.08 33.31 243.88C33.22 244.2 32.9 244.38 32.58 244.38ZM39.46 227.75C39.36 227.75 39.23 227.71 39.14 227.66C38.78 227.48 38.6 227.03 38.78 226.67C40.09 223.96 41.49 221.29 42.98 218.67C43.21 218.31 43.66 218.17 44.02 218.4C44.38 218.63 44.52 219.08 44.29 219.44C42.84 222.01 41.44 224.68 40.13 227.35C40 227.62 39.73 227.75 39.46 227.75ZM48.31 212.16C48.18 212.16 48.04 212.12 47.91 212.03C47.55 211.8 47.46 211.35 47.68 210.99C49.31 208.5 51.07 206.02 52.88 203.62C53.15 203.31 53.6 203.22 53.92 203.49C54.23 203.76 54.33 204.21 54.05 204.53C52.25 206.88 50.53 209.36 48.9 211.85C48.81 212.03 48.54 212.16 48.31 212.16ZM59.16 197.79C58.98 197.79 58.8 197.75 58.66 197.61C58.35 197.34 58.3 196.84 58.57 196.53C60.52 194.27 62.6 192.01 64.68 189.89C64.95 189.57 65.44 189.57 65.76 189.89C66.08 190.16 66.08 190.65 65.76 190.97C63.68 193.09 61.65 195.31 59.7 197.57C59.57 197.7 59.34 197.79 59.16 197.79ZM71.73 184.96C71.5 184.96 71.32 184.87 71.18 184.69C70.91 184.37 70.91 183.92 71.23 183.6C73.44 181.62 75.79 179.67 78.15 177.78C78.46 177.5 78.96 177.55 79.18 177.91C79.46 178.23 79.41 178.72 79.05 178.95C76.7 180.8 74.39 182.75 72.22 184.69C72.09 184.91 71.91 184.96 71.73 184.96ZM277.97 180.17C277.79 180.17 277.61 180.08 277.43 179.94C275.3 177.91 273.09 175.88 270.78 173.98C270.47 173.71 270.42 173.26 270.69 172.89C270.96 172.58 271.41 172.53 271.78 172.8C274.13 174.75 276.39 176.74 278.51 178.81C278.83 179.09 278.83 179.58 278.51 179.9C278.38 180.13 278.15 180.17 277.97 180.17ZM85.83 173.84C85.6 173.84 85.38 173.75 85.2 173.53C84.97 173.17 85.06 172.71 85.38 172.49C87.82 170.77 90.39 169.1 92.93 167.56C93.29 167.34 93.74 167.47 93.96 167.83C94.19 168.2 94.05 168.65 93.69 168.87C91.16 170.41 88.63 172.08 86.19 173.75C86.1 173.8 85.96 173.84 85.83 173.84ZM264.09 168.78C263.96 168.78 263.78 168.74 263.64 168.65C261.25 166.98 258.71 165.35 256.09 163.86C255.73 163.63 255.6 163.18 255.82 162.82C256.05 162.46 256.5 162.32 256.86 162.55C259.48 164.08 262.06 165.71 264.5 167.43C264.86 167.65 264.91 168.15 264.68 168.47C264.54 168.69 264.32 168.78 264.09 168.78ZM101.15 164.44C100.88 164.44 100.61 164.31 100.47 164.04C100.29 163.68 100.43 163.22 100.79 163C103.41 161.6 106.12 160.24 108.88 158.98C109.24 158.8 109.69 158.98 109.87 159.34C110.06 159.7 109.87 160.15 109.51 160.33C106.8 161.6 104.09 162.95 101.51 164.31C101.38 164.44 101.24 164.44 101.15 164.44ZM248.59 159.7C248.5 159.7 248.36 159.65 248.27 159.61C245.65 158.3 242.89 157.08 240.14 155.95C239.73 155.77 239.55 155.36 239.73 154.96C239.91 154.55 240.32 154.37 240.72 154.55C243.53 155.68 246.28 156.94 248.95 158.25C249.31 158.43 249.49 158.89 249.31 159.25C249.13 159.52 248.86 159.7 248.59 159.7ZM117.47 156.9C117.15 156.9 116.88 156.72 116.75 156.4C116.61 155.99 116.79 155.59 117.15 155.41C119.91 154.32 122.8 153.24 125.65 152.29C126.06 152.15 126.46 152.38 126.6 152.74C126.73 153.15 126.51 153.55 126.15 153.69C123.3 154.64 120.5 155.68 117.74 156.76C117.65 156.85 117.56 156.9 117.47 156.9ZM231.96 152.88C231.87 152.88 231.78 152.88 231.73 152.83C228.93 151.88 226.08 151.02 223.19 150.25C222.78 150.17 222.55 149.71 222.65 149.35C222.74 148.95 223.19 148.72 223.55 148.81C226.49 149.58 229.38 150.48 232.18 151.43C232.59 151.57 232.77 151.97 232.63 152.38C232.59 152.65 232.27 152.88 231.96 152.88ZM134.46 151.16C134.15 151.16 133.83 150.93 133.74 150.62C133.65 150.21 133.88 149.8 134.28 149.67C137.17 148.86 140.11 148.13 143.05 147.45C143.46 147.36 143.86 147.64 143.95 148.04C144.05 148.45 143.77 148.86 143.37 148.95C140.47 149.58 137.54 150.35 134.69 151.11C134.6 151.16 134.55 151.16 134.46 151.16ZM214.6 148.18C214.55 148.18 214.51 148.18 214.46 148.18C211.57 147.59 208.59 147.05 205.65 146.6C205.24 146.55 204.97 146.14 205.02 145.74C205.06 145.33 205.47 145.06 205.88 145.1C208.86 145.56 211.84 146.1 214.78 146.69C215.19 146.78 215.46 147.18 215.37 147.59C215.28 147.91 214.96 148.18 214.6 148.18ZM152.05 147.23C151.68 147.23 151.37 146.96 151.32 146.6C151.23 146.19 151.55 145.78 151.95 145.74C154.89 145.24 157.92 144.79 160.9 144.47C161.31 144.43 161.67 144.7 161.76 145.15C161.81 145.56 161.54 145.92 161.08 146.01C158.15 146.37 155.16 146.78 152.23 147.27C152.14 147.23 152.09 147.23 152.05 147.23ZM196.84 145.51C196.79 145.51 196.79 145.51 196.75 145.51C193.81 145.24 190.78 145.06 187.8 144.92C187.39 144.92 187.07 144.56 187.07 144.16C187.07 143.75 187.44 143.43 187.84 143.43C190.83 143.57 193.9 143.75 196.84 144.02C197.24 144.07 197.56 144.43 197.52 144.83C197.56 145.24 197.2 145.51 196.84 145.51ZM169.9 145.15C169.49 145.15 169.18 144.83 169.13 144.43C169.09 144.02 169.4 143.66 169.85 143.61C172.84 143.43 175.86 143.3 178.89 143.25C179.3 143.25 179.66 143.57 179.66 143.97C179.66 144.38 179.35 144.74 178.94 144.74C175.96 144.79 172.97 144.88 169.99 145.1C169.9 145.15 169.9 145.15 169.9 145.15Z" fill="#FF8548" fill-opacity="1.000000" fill-rule="nonzero"/>
	<path id="Vector" d="M306.99 502.31C306.67 502.31 306.4 502.13 306.26 501.82C306.13 501.41 306.31 501 306.67 500.82C309.34 499.78 310.83 499.11 310.83 499.11C311.19 498.92 311.64 499.11 311.82 499.51C312 499.87 311.82 500.33 311.42 500.51C311.42 500.51 309.92 501.14 307.21 502.22C307.17 502.27 307.08 502.31 306.99 502.31Z" fill="#FF8548" fill-opacity="1.000000" fill-rule="nonzero"/>
	<path id="Vector" d="M348.66 181.84C348.61 181.84 348.57 181.84 348.48 181.84C348.07 181.75 347.8 181.34 347.89 180.94C348.21 179.45 348.61 177.96 349.11 176.51C349.25 176.1 349.65 175.88 350.06 176.01C350.47 176.15 350.69 176.55 350.56 176.96C350.11 178.36 349.7 179.81 349.38 181.25C349.34 181.62 349.02 181.84 348.66 181.84Z" fill="#66192D" fill-opacity="1.000000" fill-rule="nonzero"/>
	<path id="Vector" d="M551.33 394.95C551.01 394.95 550.74 394.77 550.61 394.45C550.47 394.04 550.65 393.64 551.06 393.46C553.73 392.46 556.44 391.2 559.1 389.75C559.46 389.57 559.92 389.71 560.14 390.07C560.32 390.43 560.19 390.88 559.83 391.11C557.12 392.6 554.36 393.86 551.6 394.9C551.51 394.95 551.42 394.95 551.33 394.95ZM567.06 386.45C566.83 386.45 566.61 386.36 566.43 386.14C566.2 385.82 566.25 385.32 566.61 385.1C569 383.38 571.31 381.48 573.48 379.49C573.79 379.22 574.25 379.22 574.56 379.54C574.88 379.85 574.83 380.31 574.52 380.62C572.3 382.66 569.95 384.55 567.51 386.32C567.33 386.41 567.19 386.45 567.06 386.45ZM580.17 374.34C579.99 374.34 579.8 374.3 579.67 374.16C579.35 373.89 579.31 373.44 579.58 373.08C581.48 370.82 583.24 368.42 584.82 365.94C585.05 365.58 585.5 365.49 585.86 365.71C586.22 365.94 586.31 366.39 586.09 366.75C584.46 369.28 582.65 371.72 580.71 374.03C580.62 374.25 580.39 374.34 580.17 374.34ZM589.79 359.29C589.7 359.29 589.57 359.25 589.48 359.2C589.12 359.02 588.93 358.57 589.12 358.21C590.34 355.54 591.42 352.79 592.28 349.94C592.42 349.53 592.82 349.31 593.23 349.44C593.64 349.58 593.86 349.99 593.73 350.39C592.82 353.28 591.74 356.13 590.47 358.84C590.34 359.11 590.06 359.29 589.79 359.29ZM595.08 342.26C595.04 342.26 594.99 342.26 594.95 342.26C594.54 342.17 594.27 341.81 594.31 341.4C594.81 338.55 595.13 335.57 595.31 332.59C595.31 332.18 595.67 331.87 596.12 331.87C596.53 331.87 596.84 332.23 596.84 332.68C596.71 335.71 596.35 338.73 595.85 341.67C595.76 341.99 595.44 342.26 595.08 342.26ZM596.03 324.41C595.62 324.41 595.31 324.09 595.26 323.69C595.08 320.79 594.77 317.86 594.31 314.87C594.27 314.47 594.54 314.06 594.95 314.02C595.35 313.97 595.76 314.24 595.81 314.65C596.3 317.68 596.62 320.7 596.8 323.6C596.8 324.05 596.48 324.41 596.03 324.41ZM593.27 306.74C592.91 306.74 592.64 306.51 592.55 306.15C591.87 303.35 591.06 300.46 590.11 297.61C589.97 297.21 590.2 296.8 590.61 296.66C591.01 296.53 591.42 296.75 591.56 297.16C592.51 300.05 593.32 302.99 594.04 305.84C594.13 306.24 593.91 306.65 593.5 306.74C593.41 306.74 593.32 306.74 593.27 306.74ZM587.85 289.7C587.53 289.7 587.22 289.52 587.13 289.16C586.18 286.27 585.41 283.33 584.78 280.44C584.69 280.03 584.96 279.63 585.36 279.54C585.77 279.45 586.18 279.72 586.27 280.13C586.86 282.97 587.67 285.86 588.57 288.67C588.71 289.07 588.48 289.48 588.08 289.61C588.03 289.7 587.94 289.7 587.85 289.7ZM584.14 272.22C583.78 272.22 583.42 271.95 583.38 271.54C583.1 268.96 582.97 266.34 582.97 263.77C582.97 263.36 582.97 262.91 582.97 262.5C582.97 262.1 583.33 261.78 583.74 261.78C584.14 261.78 584.51 262.14 584.46 262.55C584.46 262.95 584.46 263.36 584.46 263.77C584.46 266.3 584.59 268.87 584.82 271.4C584.87 271.81 584.55 272.17 584.14 272.22ZM584.41 254.37C584.37 254.37 584.37 254.37 584.32 254.37C583.92 254.32 583.6 253.92 583.69 253.51C584.1 250.53 584.69 247.54 585.45 244.65C585.54 244.25 585.95 244.02 586.36 244.11C586.77 244.2 586.99 244.61 586.9 245.01C586.18 247.86 585.59 250.8 585.18 253.69C585.14 254.1 584.82 254.37 584.41 254.37ZM647.02 253.24C646.61 253.24 646.25 252.92 646.25 252.52C646.25 252.11 646.56 251.75 646.97 251.75C650 251.7 652.94 251.48 655.78 251.02C656.19 250.98 656.6 251.25 656.64 251.66C656.69 252.06 656.42 252.47 656.01 252.52C653.12 252.92 650.09 253.19 647.02 253.24ZM638.07 252.88C638.02 252.88 638.02 252.88 637.98 252.88C635.04 252.61 632.01 252.15 629.03 251.52C628.62 251.43 628.35 251.02 628.44 250.62C628.53 250.21 628.94 249.94 629.34 250.03C632.28 250.62 635.22 251.07 638.11 251.34C638.52 251.39 638.83 251.75 638.79 252.15C638.79 252.56 638.47 252.88 638.07 252.88ZM664.64 250.57C664.33 250.57 664.01 250.35 663.92 250.03C663.78 249.62 664.01 249.22 664.42 249.08C667.35 248.18 670.11 247.05 672.55 245.69C672.91 245.51 673.37 245.65 673.59 246.01C673.77 246.37 673.64 246.82 673.28 247.05C670.74 248.4 667.94 249.58 664.87 250.53C664.82 250.57 664.73 250.57 664.64 250.57ZM620.53 249.31C620.44 249.31 620.39 249.31 620.3 249.26C617.46 248.36 614.61 247.32 611.85 246.14C611.49 245.96 611.31 245.56 611.44 245.15C611.62 244.79 612.03 244.61 612.44 244.74C615.15 245.87 617.95 246.91 620.75 247.82C621.16 247.95 621.39 248.36 621.25 248.77C621.16 249.08 620.89 249.31 620.53 249.31ZM604.08 242.35C603.94 242.35 603.85 242.3 603.71 242.26C601.09 240.81 598.47 239.28 595.99 237.56C595.62 237.33 595.53 236.84 595.76 236.52C595.99 236.16 596.48 236.07 596.8 236.29C599.24 237.96 601.82 239.5 604.39 240.9C604.75 241.08 604.89 241.58 604.71 241.94C604.62 242.21 604.35 242.35 604.08 242.35ZM680.1 241.85C679.92 241.85 679.69 241.76 679.56 241.63C679.24 241.31 679.24 240.86 679.56 240.54C681.73 238.37 683.31 235.98 684.35 233.45C684.48 233.04 684.94 232.86 685.34 233.04C685.75 233.18 685.93 233.63 685.75 234.03C684.67 236.79 682.95 239.37 680.64 241.67C680.51 241.81 680.28 241.85 680.1 241.85ZM588.89 237.11C588.8 237.11 588.71 237.11 588.62 237.06C588.21 236.93 588.03 236.47 588.21 236.07C589.3 233.27 590.56 230.51 591.96 227.84C592.14 227.48 592.59 227.35 593 227.53C593.36 227.71 593.5 228.16 593.32 228.57C591.92 231.19 590.7 233.9 589.61 236.61C589.48 236.93 589.21 237.11 588.89 237.11ZM589.25 232.36C589.07 232.36 588.93 232.32 588.75 232.18C586.45 230.28 584.19 228.25 582.06 226.13C581.75 225.85 581.75 225.36 582.06 225.04C582.34 224.72 582.83 224.72 583.15 225.04C585.23 227.12 587.49 229.11 589.75 231.01C590.06 231.28 590.11 231.73 589.84 232.09C589.7 232.27 589.48 232.36 589.25 232.36ZM686.38 225.72C685.98 225.72 685.66 225.4 685.61 225C685.43 222.29 684.71 219.48 683.45 216.64C683.26 216.28 683.45 215.82 683.85 215.64C684.21 215.46 684.67 215.64 684.85 216.05C686.16 219.08 686.93 222.06 687.11 224.91C687.15 225.31 686.83 225.67 686.38 225.72ZM597.3 221.34C597.16 221.34 596.98 221.29 596.89 221.2C596.53 220.97 596.48 220.48 596.71 220.16C598.43 217.68 600.28 215.28 602.27 213.02C602.54 212.71 603.04 212.66 603.35 212.98C603.67 213.25 603.71 213.74 603.44 214.06C601.5 216.28 599.65 218.62 597.97 221.02C597.75 221.2 597.52 221.34 597.3 221.34ZM576.55 219.75C576.32 219.75 576.14 219.66 575.96 219.48C574.06 217.22 572.21 214.83 570.49 212.34C570.27 211.98 570.36 211.53 570.67 211.3C571.04 211.08 571.49 211.17 571.71 211.49C573.43 213.93 575.24 216.28 577.14 218.53C577.41 218.85 577.36 219.35 577.05 219.62C576.91 219.71 576.73 219.75 576.55 219.75ZM679.69 209.41C679.47 209.41 679.24 209.32 679.06 209.09C677.3 206.65 675.35 204.39 673.28 202.45C672.96 202.18 672.96 201.68 673.23 201.36C673.5 201.05 674 201.05 674.32 201.32C676.44 203.31 678.47 205.61 680.28 208.14C680.51 208.46 680.46 208.95 680.1 209.18C680.01 209.32 679.87 209.41 679.69 209.41ZM609.09 207.92C608.87 207.92 608.69 207.82 608.55 207.64C608.28 207.33 608.28 206.88 608.6 206.56C610.86 204.53 613.25 202.67 615.69 200.96C616.05 200.73 616.51 200.82 616.73 201.14C616.96 201.5 616.87 201.95 616.55 202.18C614.15 203.8 611.81 205.66 609.59 207.64C609.46 207.87 609.27 207.92 609.09 207.92ZM566.29 205.16C566.02 205.16 565.79 205.02 565.66 204.8C564.17 202.27 562.72 199.56 561.41 196.84C561.23 196.48 561.36 196.03 561.77 195.85C562.13 195.67 562.58 195.8 562.76 196.21C564.08 198.88 565.48 201.54 566.92 204.07C567.15 204.44 567.01 204.89 566.65 205.11C566.56 205.11 566.43 205.16 566.29 205.16ZM623.83 197.84C623.56 197.84 623.28 197.7 623.15 197.43C622.97 197.07 623.1 196.62 623.47 196.44C626.22 195.04 629.03 193.91 631.83 193C632.24 192.87 632.64 193.09 632.78 193.5C632.91 193.91 632.69 194.31 632.28 194.45C629.52 195.35 626.81 196.48 624.1 197.79C624.05 197.79 623.96 197.84 623.83 197.84ZM666.72 197.25C666.59 197.25 666.45 197.21 666.36 197.16C663.83 195.67 661.16 194.49 658.36 193.64C657.95 193.5 657.73 193.09 657.86 192.69C658 192.28 658.41 192.05 658.81 192.19C661.7 193.09 664.51 194.31 667.17 195.85C667.54 196.08 667.67 196.53 667.44 196.89C667.22 197.16 666.95 197.25 666.72 197.25ZM640.82 192.42C640.46 192.42 640.14 192.14 640.05 191.78C640.01 191.38 640.28 190.97 640.69 190.92C643.76 190.52 646.83 190.38 649.77 190.61C650.18 190.65 650.5 191.02 650.5 191.42C650.5 191.83 650.13 192.14 649.68 192.14C646.83 191.96 643.85 192.05 640.91 192.46C640.87 192.42 640.82 192.42 640.82 192.42ZM558.47 189.07C558.15 189.07 557.88 188.89 557.75 188.57C556.66 185.82 555.62 182.97 554.72 180.12C554.58 179.72 554.81 179.31 555.22 179.18C555.62 179.04 556.03 179.27 556.17 179.67C557.07 182.52 558.06 185.32 559.15 188.03C559.28 188.44 559.1 188.85 558.74 189.03C558.65 189.07 558.56 189.07 558.47 189.07ZM552.64 172.17C552.32 172.17 552.05 171.99 551.92 171.67C550.88 168.87 549.66 166.12 548.39 163.54C548.21 163.18 548.35 162.73 548.75 162.55C549.11 162.37 549.57 162.5 549.75 162.91C551.06 165.57 552.23 168.33 553.32 171.18C553.45 171.58 553.27 171.99 552.87 172.17C552.82 172.13 552.73 172.17 552.64 172.17ZM353.31 169.23C353.18 169.23 353.09 169.19 352.95 169.14C352.59 168.96 352.46 168.51 352.64 168.15C353.99 165.53 355.57 162.95 357.34 160.42C357.56 160.06 358.06 160.02 358.38 160.24C358.74 160.47 358.78 160.97 358.56 161.28C356.84 163.77 355.26 166.3 353.95 168.83C353.86 169.1 353.59 169.23 353.31 169.23ZM544.78 156.13C544.5 156.13 544.28 155.99 544.14 155.77C542.56 153.24 540.89 150.8 539.08 148.49C538.81 148.18 538.9 147.68 539.22 147.45C539.53 147.18 540.03 147.27 540.26 147.59C542.06 149.94 543.83 152.42 545.41 155C545.63 155.36 545.5 155.81 545.18 156.04C545.05 156.08 544.91 156.13 544.78 156.13ZM363.53 154.59C363.35 154.59 363.17 154.55 363.03 154.41C362.72 154.14 362.72 153.64 362.99 153.33C364.93 151.16 367.1 148.99 369.36 146.96C369.68 146.69 370.13 146.69 370.44 147C370.72 147.32 370.72 147.77 370.4 148.09C368.18 150.12 366.06 152.24 364.12 154.37C363.94 154.55 363.76 154.59 363.53 154.59ZM376.73 142.57C376.5 142.57 376.28 142.48 376.14 142.26C375.87 141.94 375.96 141.44 376.28 141.22C378.63 139.46 381.11 137.69 383.64 136.07C384 135.84 384.46 135.93 384.68 136.29C384.91 136.65 384.82 137.11 384.46 137.33C381.93 138.96 379.48 140.67 377.18 142.44C377.04 142.48 376.91 142.57 376.73 142.57ZM533.84 142.03C533.66 142.03 533.43 141.94 533.3 141.81C531.26 139.68 529.05 137.65 526.79 135.8C526.47 135.52 526.43 135.07 526.7 134.71C526.97 134.39 527.42 134.35 527.78 134.62C530.09 136.52 532.35 138.6 534.43 140.77C534.7 141.08 534.7 141.53 534.43 141.85C534.2 141.94 534.02 142.03 533.84 142.03ZM391.78 132.86C391.51 132.86 391.24 132.72 391.1 132.45C390.92 132.09 391.06 131.64 391.42 131.41C393.99 129.97 396.71 128.61 399.46 127.35C399.82 127.16 400.28 127.35 400.46 127.71C400.64 128.07 400.46 128.52 400.1 128.7C397.38 129.97 394.72 131.32 392.14 132.72C392 132.81 391.87 132.86 391.78 132.86ZM520.05 130.64C519.92 130.64 519.78 130.6 519.65 130.51C517.2 128.88 514.63 127.39 512.01 126.04C511.65 125.85 511.51 125.4 511.69 125C511.87 124.63 512.32 124.5 512.73 124.68C515.4 126.08 518.02 127.62 520.5 129.24C520.87 129.47 520.96 129.92 520.73 130.28C520.55 130.51 520.32 130.64 520.05 130.64ZM407.96 125.27C407.64 125.27 407.37 125.09 407.24 124.77C407.1 124.36 407.28 123.96 407.64 123.78C410.4 122.69 413.25 121.65 416.1 120.75C416.5 120.61 416.91 120.84 417.04 121.25C417.18 121.65 416.95 122.06 416.55 122.19C413.75 123.1 410.9 124.14 408.19 125.22C408.14 125.22 408.05 125.27 407.96 125.27ZM504.23 122.37C504.14 122.37 504.05 122.37 503.96 122.33C501.25 121.25 498.45 120.25 495.55 119.39C495.15 119.26 494.92 118.85 495.06 118.44C495.19 118.04 495.6 117.81 496.01 117.95C498.9 118.81 501.79 119.8 504.5 120.93C504.91 121.06 505.09 121.52 504.91 121.92C504.82 122.19 504.5 122.37 504.23 122.37ZM425 119.71C424.68 119.71 424.37 119.48 424.28 119.17C424.19 118.76 424.41 118.35 424.82 118.26C427.71 117.49 430.65 116.82 433.59 116.23C433.99 116.14 434.4 116.41 434.49 116.82C434.58 117.22 434.31 117.63 433.9 117.72C431.01 118.31 428.07 118.99 425.23 119.75C425.14 119.71 425.04 119.71 425 119.71ZM487.1 117.27C487.06 117.27 487.01 117.27 486.97 117.27C484.12 116.68 481.18 116.18 478.2 115.82C477.79 115.78 477.48 115.37 477.57 114.96C477.61 114.56 478.02 114.24 478.42 114.33C481.45 114.74 484.44 115.24 487.33 115.82C487.74 115.91 488.01 116.32 487.92 116.73C487.74 117 487.42 117.27 487.1 117.27ZM442.54 116.18C442.17 116.18 441.86 115.91 441.77 115.55C441.72 115.14 441.99 114.74 442.4 114.69C445.38 114.29 448.37 113.97 451.35 113.7C451.76 113.65 452.12 113.97 452.16 114.38C452.21 114.78 451.89 115.14 451.49 115.19C448.55 115.42 445.56 115.73 442.63 116.14C442.63 116.18 442.58 116.18 442.54 116.18ZM469.34 114.96C466.36 114.78 463.37 114.74 460.39 114.78C459.98 114.78 459.62 114.47 459.62 114.06C459.62 113.65 459.94 113.29 460.34 113.29C463.37 113.25 466.4 113.29 469.34 113.47C469.75 113.52 470.06 113.83 470.06 114.29C470.06 114.65 469.75 114.96 469.34 114.96Z" fill="#66192D" fill-opacity="1.000000" fill-rule="nonzero"/>
	<path id="Vector" d="M538.04 397.84C537.63 397.84 537.27 397.52 537.27 397.07C537.27 396.66 537.59 396.3 538.04 396.3C539.35 396.3 540.84 396.17 542.43 395.9C542.83 395.81 543.24 396.12 543.28 396.53C543.37 396.94 543.06 397.34 542.65 397.39C541.02 397.7 539.44 397.84 538.04 397.84Z" fill="#66192D" fill-opacity="1.000000" fill-rule="nonzero"/>
	<path id="Vector" d="M402.81 193.55L402.76 193.55C401.27 193.46 399.73 193.37 398.24 193.27C397.84 193.23 397.52 192.91 397.52 192.46C397.56 192.05 397.93 191.74 398.33 191.74C399.82 191.83 401.36 191.92 402.85 192.01C403.26 192.05 403.58 192.42 403.53 192.82C403.53 193.27 403.21 193.55 402.81 193.55Z" fill="#786AB5" fill-opacity="1.000000" fill-rule="nonzero"/>
	<path id="Vector" d="M545.59 624.95C544.96 624.95 544.32 624.95 543.69 624.95C543.28 624.95 542.92 624.59 542.97 624.19C542.97 623.78 543.33 623.46 543.74 623.46C546.76 623.51 549.75 623.46 552.73 623.24C553.14 623.19 553.5 623.51 553.54 623.96C553.59 624.37 553.27 624.73 552.82 624.77C550.43 624.86 548.03 624.95 545.59 624.95ZM534.65 624.41C534.61 624.41 534.61 624.41 534.56 624.41C531.58 624.14 528.5 623.69 525.52 623.19C525.11 623.1 524.84 622.74 524.89 622.33C524.98 621.93 525.34 621.65 525.75 621.7C528.73 622.24 531.71 622.65 534.7 622.92C535.1 622.96 535.42 623.33 535.37 623.73C535.37 624.09 535.06 624.41 534.65 624.41ZM561.82 623.73C561.45 623.73 561.14 623.46 561.09 623.1C561.05 622.69 561.32 622.29 561.73 622.24C564.66 621.79 567.65 621.2 570.58 620.53C570.99 620.43 571.4 620.66 571.49 621.07C571.58 621.47 571.35 621.88 570.95 621.97C568.01 622.69 564.98 623.24 562 623.69C561.86 623.73 561.82 623.73 561.82 623.73ZM516.8 621.38C516.75 621.38 516.66 621.38 516.62 621.38C513.63 620.71 510.7 619.94 507.8 619.08C507.4 618.94 507.17 618.54 507.31 618.13C507.44 617.72 507.85 617.5 508.26 617.63C511.1 618.45 514.04 619.21 516.98 619.89C517.39 619.98 517.66 620.39 517.57 620.8C517.43 621.16 517.11 621.38 516.8 621.38ZM579.44 619.53C579.13 619.53 578.81 619.35 578.72 619.03C578.58 618.63 578.81 618.22 579.22 618.08C582.06 617.14 584.87 616.1 587.62 614.92C588.03 614.74 588.44 614.92 588.62 615.33C588.8 615.69 588.62 616.14 588.21 616.32C585.41 617.5 582.56 618.58 579.67 619.53C579.58 619.53 579.49 619.53 579.44 619.53ZM499.35 616.32C499.26 616.32 499.17 616.32 499.08 616.28C496.23 615.28 493.34 614.15 490.58 613.02C490.18 612.84 490 612.44 490.18 612.03C490.36 611.62 490.76 611.44 491.17 611.62C493.93 612.8 496.77 613.88 499.58 614.88C499.98 615.01 500.16 615.46 500.03 615.83C499.98 616.14 499.67 616.32 499.35 616.32ZM596.12 612.44C595.85 612.44 595.58 612.3 595.44 612.03C595.26 611.67 595.4 611.22 595.76 610.99C598.38 609.59 601 608.1 603.53 606.47C603.9 606.25 604.35 606.34 604.57 606.7C604.8 607.06 604.71 607.51 604.35 607.74C601.77 609.36 599.1 610.9 596.44 612.3C596.35 612.44 596.21 612.44 596.12 612.44ZM482.63 609.32C482.54 609.32 482.4 609.27 482.31 609.23C479.6 607.87 476.89 606.47 474.27 604.98C473.9 604.75 473.77 604.3 473.99 603.94C474.22 603.58 474.67 603.44 475.03 603.67C477.61 605.16 480.32 606.56 482.99 607.87C483.35 608.05 483.53 608.51 483.35 608.87C483.22 609.18 482.94 609.32 482.63 609.32ZM611.4 602.72C611.17 602.72 610.95 602.63 610.81 602.4C610.54 602.09 610.63 601.59 610.95 601.37C613.34 599.56 615.69 597.66 617.91 595.67C618.22 595.4 618.68 595.45 618.99 595.72C619.26 596.03 619.22 596.49 618.95 596.8C616.69 598.83 614.29 600.78 611.9 602.59C611.71 602.68 611.53 602.72 611.4 602.72ZM466.9 600.37C466.76 600.37 466.63 600.33 466.49 600.24C463.96 598.56 461.43 596.85 459.03 595.04C458.72 594.77 458.63 594.32 458.9 594C459.12 593.68 459.62 593.59 459.94 593.86C462.33 595.67 464.82 597.39 467.35 599.02C467.71 599.24 467.8 599.69 467.58 600.06C467.4 600.24 467.12 600.37 466.9 600.37ZM624.96 590.7C624.78 590.7 624.6 590.61 624.42 590.48C624.1 590.2 624.1 589.71 624.42 589.39C626.49 587.22 628.53 584.96 630.43 582.66C630.7 582.34 631.15 582.3 631.51 582.57C631.83 582.84 631.87 583.29 631.6 583.65C629.66 586 627.62 588.26 625.5 590.48C625.36 590.65 625.14 590.7 624.96 590.7ZM452.34 589.53C452.16 589.53 451.98 589.48 451.85 589.34C449.54 587.4 447.24 585.37 445.07 583.25C444.75 582.97 444.75 582.48 445.02 582.16C445.29 581.84 445.79 581.84 446.11 582.12C448.28 584.19 450.54 586.23 452.84 588.13C453.16 588.4 453.2 588.85 452.93 589.21C452.75 589.44 452.57 589.53 452.34 589.53ZM439.19 577.05C439.01 577.05 438.79 576.96 438.65 576.83C436.57 574.61 434.54 572.31 432.64 570.01C432.37 569.69 432.41 569.19 432.73 568.92C433.04 568.65 433.54 568.69 433.81 569.01C435.76 571.32 437.75 573.62 439.78 575.79C440.05 576.11 440.05 576.56 439.73 576.87C439.55 576.96 439.37 577.05 439.19 577.05ZM636.48 576.74C636.35 576.74 636.17 576.69 636.03 576.6C635.67 576.38 635.63 575.88 635.85 575.56C637.57 573.12 639.24 570.55 640.73 567.97C640.96 567.61 641.41 567.47 641.77 567.7C642.13 567.93 642.27 568.38 642.04 568.74C640.51 571.36 638.83 573.94 637.07 576.42C636.98 576.65 636.76 576.74 636.48 576.74ZM427.58 563.09C427.35 563.09 427.12 563 426.99 562.78C425.18 560.34 423.42 557.8 421.79 555.27C421.56 554.91 421.65 554.46 422.02 554.23C422.38 554.01 422.83 554.1 423.06 554.46C424.68 556.95 426.45 559.48 428.21 561.87C428.43 562.19 428.39 562.68 428.07 562.91C427.89 563.05 427.76 563.09 427.58 563.09ZM645.7 561.15C645.61 561.15 645.48 561.1 645.39 561.06C645.03 560.88 644.84 560.43 645.03 560.06C646.34 557.35 647.56 554.6 648.64 551.79C648.78 551.39 649.23 551.21 649.64 551.34C650.04 551.48 650.22 551.93 650.09 552.34C649 555.14 647.78 557.94 646.43 560.7C646.25 560.97 646.02 561.15 645.7 561.15ZM417.63 547.91C417.36 547.91 417.13 547.77 417 547.55C415.46 544.88 414.02 542.17 412.66 539.5C412.48 539.14 412.62 538.69 413.02 538.51C413.38 538.33 413.84 538.46 414.02 538.87C415.33 541.54 416.77 544.2 418.31 546.82C418.54 547.19 418.4 547.64 418.04 547.86C417.9 547.91 417.77 547.91 417.63 547.91ZM652.26 544.25C652.17 544.25 652.12 544.25 652.03 544.2C651.63 544.07 651.4 543.66 651.53 543.25C652.39 540.36 653.07 537.42 653.66 534.49C653.75 534.08 654.11 533.81 654.56 533.9C654.97 533.99 655.24 534.35 655.15 534.8C654.56 537.74 653.89 540.72 653.03 543.71C652.89 544.02 652.57 544.25 652.26 544.25ZM655.65 526.44C655.65 526.44 655.6 526.44 655.56 526.44C655.15 526.4 654.83 526.04 654.88 525.63C655.11 523.06 655.24 520.48 655.24 517.95C655.24 517.5 655.24 517.09 655.24 516.64C655.24 516.23 655.56 515.87 655.96 515.87C656.37 515.87 656.73 516.19 656.73 516.59C656.73 517.05 656.73 517.5 656.73 517.9C656.73 520.48 656.6 523.1 656.37 525.72C656.37 526.13 656.01 526.44 655.65 526.44ZM655.33 508.32C654.97 508.32 654.65 508.05 654.56 507.65C654.16 504.66 653.61 501.68 652.89 498.83C652.8 498.43 653.03 498.02 653.43 497.93C653.84 497.84 654.25 498.07 654.34 498.47C655.11 501.41 655.65 504.44 656.05 507.47C656.1 507.87 655.83 508.28 655.42 508.32C655.38 508.32 655.38 508.32 655.33 508.32ZM650.81 490.79C650.5 490.79 650.22 490.61 650.09 490.29C649 487.54 647.69 484.78 646.25 482.21C646.07 481.84 646.16 481.39 646.52 481.17C646.88 480.99 647.33 481.08 647.56 481.44C649.05 484.1 650.36 486.86 651.49 489.71C651.63 490.11 651.44 490.52 651.08 490.7C650.99 490.79 650.9 490.79 650.81 490.79ZM592.87 482.7C590.52 482.7 588.35 482.34 586.31 481.66C585.91 481.53 585.73 481.08 585.86 480.71C586 480.31 586.45 480.13 586.81 480.26C589.34 481.17 592.28 481.44 595.44 481.08C595.85 481.03 596.21 481.35 596.26 481.75C596.3 482.16 595.99 482.52 595.58 482.57C594.68 482.61 593.77 482.7 592.87 482.7ZM604.3 480.26C603.99 480.26 603.71 480.08 603.58 479.77C603.44 479.36 603.62 478.95 603.99 478.77C606.56 477.78 609.23 476.42 611.99 474.79C612.35 474.57 612.8 474.7 613.03 475.07C613.25 475.43 613.12 475.88 612.75 476.11C609.95 477.78 607.15 479.13 604.53 480.17C604.48 480.26 604.39 480.26 604.3 480.26ZM579.35 476.42C579.13 476.42 578.9 476.33 578.77 476.11C576.91 473.71 575.65 470.73 575.15 467.47C575.1 467.07 575.38 466.66 575.78 466.62C576.19 466.57 576.59 466.84 576.64 467.25C577.09 470.23 578.27 472.99 579.94 475.2C580.21 475.52 580.12 476.01 579.8 476.24C579.67 476.38 579.49 476.42 579.35 476.42ZM642 474.98C641.77 474.98 641.55 474.88 641.41 474.66C639.65 472.26 637.7 469.96 635.63 467.79C635.35 467.47 635.35 467.02 635.63 466.71C635.94 466.43 636.39 466.43 636.71 466.71C638.83 468.92 640.82 471.27 642.63 473.71C642.9 474.03 642.81 474.52 642.5 474.75C642.31 474.93 642.18 474.98 642 474.98ZM619.94 471.18C619.71 471.18 619.49 471.09 619.35 470.86C619.08 470.55 619.17 470.05 619.49 469.82C621.79 468.06 623.96 466.03 625.95 463.72C626.22 463.41 626.72 463.36 627.04 463.63C627.35 463.9 627.4 464.4 627.13 464.72C625.09 467.11 622.83 469.24 620.44 471.04C620.26 471.13 620.12 471.18 619.94 471.18ZM629.48 461.92C629.3 461.92 629.16 461.87 628.98 461.74C628.71 461.51 628.44 461.28 628.17 461.06C626 459.34 623.87 457.76 621.79 456.31C621.43 456.09 621.39 455.59 621.61 455.27C621.84 454.91 622.34 454.87 622.65 455.09C624.78 456.54 626.95 458.17 629.12 459.93C629.39 460.15 629.66 460.38 629.98 460.61C630.29 460.88 630.34 461.33 630.07 461.69C629.93 461.83 629.7 461.92 629.48 461.92ZM576.41 459.16C576.32 459.16 576.28 459.16 576.19 459.11C575.78 458.98 575.56 458.57 575.69 458.17C576.59 455.05 578.18 452.25 580.3 450.03C580.57 449.72 581.07 449.72 581.39 449.99C581.7 450.26 581.7 450.75 581.43 451.07C579.49 453.1 578.04 455.73 577.18 458.57C577.05 458.93 576.78 459.16 576.41 459.16ZM631.69 457.53C631.56 457.53 631.42 457.49 631.33 457.44C630.97 457.22 630.83 456.76 631.06 456.4C632.51 453.92 633.77 451.21 634.86 448.31C634.99 447.91 635.44 447.73 635.85 447.86C636.26 448 636.44 448.45 636.3 448.86C635.17 451.79 633.86 454.6 632.37 457.17C632.24 457.4 631.96 457.53 631.69 457.53ZM614.56 451.7C614.43 451.7 614.34 451.66 614.2 451.61C611.4 450.08 608.64 448.86 606.07 447.91C605.66 447.77 605.48 447.32 605.61 446.96C605.75 446.55 606.2 446.37 606.56 446.51C609.23 447.46 612.08 448.72 614.92 450.3C615.28 450.48 615.42 450.98 615.24 451.34C615.06 451.52 614.79 451.7 614.56 451.7ZM588.48 446.69C588.17 446.69 587.85 446.46 587.76 446.15C587.62 445.74 587.85 445.33 588.26 445.2C591.06 444.34 594.18 444.07 597.52 444.38C597.93 444.43 598.25 444.79 598.2 445.2C598.15 445.6 597.79 445.92 597.39 445.87C594.22 445.56 591.33 445.83 588.71 446.6C588.66 446.64 588.57 446.69 588.48 446.69ZM638.29 440.68C638.25 440.68 638.16 440.68 638.11 440.68C637.7 440.59 637.48 440.18 637.57 439.77C638.25 436.97 638.83 433.99 639.29 430.96C639.33 430.56 639.74 430.28 640.14 430.33C640.55 430.38 640.82 430.78 640.78 431.19C640.33 434.31 639.74 437.29 639.06 440.18C638.92 440.45 638.61 440.68 638.29 440.68ZM640.87 422.74C640.42 422.69 640.1 422.38 640.1 421.92C640.24 419.8 640.28 417.59 640.28 415.37C640.28 414.56 640.28 413.7 640.24 412.89C640.24 412.48 640.55 412.12 640.96 412.12C641.37 412.12 641.73 412.44 641.73 412.84C641.73 413.7 641.77 414.51 641.77 415.37C641.77 417.59 641.73 419.85 641.59 421.97C641.59 422.42 641.27 422.74 640.87 422.74ZM640.55 404.62C640.14 404.62 639.83 404.3 639.78 403.94C639.56 401 639.2 397.98 638.74 394.95C638.7 394.54 638.97 394.13 639.38 394.09C639.78 394.04 640.19 394.32 640.24 394.72C640.69 397.75 641 400.82 641.27 403.76C641.32 404.17 641 404.53 640.6 404.57C640.6 404.62 640.55 404.62 640.55 404.62ZM637.98 386.63C637.61 386.63 637.3 386.36 637.25 386.05C636.66 383.15 636.03 380.17 635.26 377.23C635.17 376.83 635.4 376.42 635.81 376.33C636.21 376.24 636.62 376.47 636.71 376.87C637.43 379.86 638.11 382.84 638.7 385.77C638.79 386.18 638.52 386.59 638.11 386.68C638.07 386.63 638.02 386.63 637.98 386.63ZM633.59 369.06C633.27 369.06 632.96 368.83 632.87 368.51C632.01 365.67 631.11 362.77 630.11 359.93C629.98 359.52 630.2 359.11 630.56 358.98C630.97 358.84 631.38 359.07 631.51 359.43C632.51 362.32 633.46 365.21 634.31 368.11C634.45 368.51 634.22 368.92 633.82 369.06C633.77 369.06 633.68 369.06 633.59 369.06ZM627.67 351.88C627.35 351.88 627.08 351.7 626.95 351.39C625.86 348.63 624.69 345.78 623.47 343.03C623.28 342.67 623.47 342.21 623.87 342.03C624.24 341.85 624.69 342.03 624.87 342.44C626.09 345.24 627.26 348.04 628.35 350.84C628.48 351.25 628.3 351.66 627.94 351.84C627.85 351.88 627.76 351.88 627.67 351.88ZM620.35 335.3C620.08 335.3 619.81 335.16 619.67 334.89C618.36 332.18 616.96 329.47 615.56 326.85C615.38 326.49 615.51 326.04 615.87 325.81C616.23 325.63 616.69 325.76 616.91 326.13C618.36 328.79 619.71 331.5 621.07 334.22C621.25 334.58 621.12 335.03 620.71 335.21C620.57 335.25 620.48 335.3 620.35 335.3ZM611.81 319.3C611.53 319.3 611.31 319.17 611.17 318.94C609.68 316.37 608.1 313.75 606.47 311.21C606.25 310.85 606.34 310.4 606.7 310.18C607.06 309.95 607.51 310.04 607.74 310.4C609.36 312.98 610.95 315.6 612.48 318.17C612.71 318.54 612.57 318.99 612.21 319.21C612.08 319.26 611.94 319.3 611.81 319.3ZM602.09 303.94C601.86 303.94 601.59 303.8 601.45 303.62C599.74 301.14 597.97 298.65 596.21 296.26C595.99 295.94 596.03 295.44 596.35 295.22C596.66 294.95 597.16 295.04 597.39 295.35C599.19 297.79 600.96 300.28 602.68 302.76C602.9 303.13 602.81 303.58 602.49 303.8C602.36 303.94 602.22 303.94 602.09 303.94ZM591.28 289.39C591.06 289.39 590.83 289.3 590.7 289.12C588.84 286.77 586.9 284.42 584.91 282.16C584.64 281.84 584.69 281.35 585 281.07C585.32 280.8 585.82 280.85 586.09 281.17C588.08 283.47 590.02 285.82 591.87 288.17C592.14 288.49 592.1 288.98 591.74 289.21C591.6 289.34 591.42 289.39 591.28 289.39ZM579.44 275.61C579.22 275.61 579.04 275.52 578.9 275.38C576.87 273.17 574.74 270.95 572.66 268.83C572.39 268.51 572.39 268.06 572.66 267.74C572.98 267.47 573.43 267.47 573.75 267.74C575.87 269.87 578 272.08 580.03 274.3C580.3 274.61 580.3 275.06 579.99 275.38C579.8 275.56 579.62 275.61 579.44 275.61ZM566.65 262.77C566.47 262.77 566.29 262.73 566.15 262.55C563.99 260.51 561.73 258.44 559.46 256.49C559.15 256.22 559.1 255.72 559.37 255.41C559.65 255.09 560.14 255.05 560.46 255.32C562.72 257.31 565.02 259.34 567.19 261.42C567.51 261.69 567.51 262.19 567.24 262.5C567.06 262.68 566.88 262.77 566.65 262.77ZM553 250.84C552.82 250.84 552.69 250.8 552.5 250.66C550.15 248.77 547.76 246.91 545.36 245.11C545.05 244.83 544.96 244.38 545.23 244.07C545.5 243.75 545.95 243.66 546.27 243.93C548.66 245.74 551.1 247.64 553.45 249.53C553.77 249.8 553.82 250.26 553.54 250.57C553.41 250.75 553.18 250.84 553 250.84ZM538.49 239.95C538.36 239.95 538.18 239.91 538.04 239.82C535.6 238.1 533.07 236.43 530.54 234.8C530.18 234.58 530.09 234.12 530.31 233.76C530.54 233.4 530.99 233.31 531.35 233.54C533.88 235.16 536.41 236.88 538.9 238.6C539.26 238.82 539.31 239.32 539.08 239.64C538.95 239.82 538.72 239.95 538.49 239.95ZM523.22 230.1C523.08 230.1 522.94 230.06 522.81 230.01C520.23 228.48 517.57 226.99 514.94 225.54C514.58 225.36 514.45 224.86 514.63 224.5C514.81 224.14 515.31 224 515.67 224.18C518.33 225.63 520.96 227.17 523.58 228.7C523.94 228.93 524.07 229.38 523.85 229.74C523.76 229.97 523.49 230.1 523.22 230.1ZM507.31 221.43C507.17 221.43 507.08 221.38 506.99 221.34C504.32 219.98 501.57 218.67 498.85 217.45C498.49 217.27 498.31 216.82 498.49 216.46C498.67 216.09 499.13 215.91 499.49 216.09C502.24 217.36 505 218.67 507.71 220.03C508.07 220.21 508.26 220.66 508.03 221.02C507.85 221.25 507.58 221.43 507.31 221.43ZM490.81 213.88C490.72 213.88 490.63 213.88 490.54 213.84C487.78 212.71 484.93 211.58 482.13 210.49C481.72 210.36 481.54 209.9 481.68 209.5C481.81 209.09 482.27 208.91 482.67 209.05C485.52 210.08 488.37 211.21 491.13 212.39C491.53 212.57 491.71 212.98 491.53 213.38C491.4 213.7 491.13 213.88 490.81 213.88ZM473.86 207.51C473.77 207.51 473.68 207.51 473.63 207.46C470.79 206.52 467.89 205.61 465 204.71C464.59 204.57 464.37 204.17 464.5 203.76C464.64 203.35 465.05 203.13 465.45 203.26C468.35 204.12 471.28 205.07 474.13 206.02C474.54 206.15 474.72 206.56 474.63 206.97C474.45 207.28 474.18 207.51 473.86 207.51ZM456.46 202.31C456.41 202.31 456.32 202.31 456.28 202.27C453.38 201.5 450.45 200.78 447.51 200.1C447.1 200.01 446.83 199.6 446.92 199.19C447.01 198.79 447.42 198.52 447.82 198.61C450.76 199.28 453.75 200.01 456.64 200.78C457.05 200.87 457.27 201.27 457.18 201.68C457.09 202.09 456.82 202.31 456.46 202.31ZM438.79 198.25C438.74 198.25 438.69 198.25 438.65 198.25C435.71 197.66 432.73 197.16 429.75 196.66C429.34 196.62 429.07 196.21 429.11 195.81C429.16 195.4 429.56 195.13 429.97 195.17C432.95 195.67 435.98 196.21 438.92 196.75C439.33 196.84 439.6 197.25 439.51 197.66C439.46 198.02 439.15 198.25 438.79 198.25ZM420.89 195.35C420.84 195.35 420.84 195.35 420.8 195.35C417.81 194.95 414.83 194.63 411.8 194.31C411.39 194.27 411.08 193.91 411.12 193.5C411.17 193.09 411.53 192.78 411.94 192.82C414.97 193.14 417.99 193.46 420.98 193.86C421.38 193.91 421.7 194.31 421.61 194.72C421.56 195.08 421.25 195.35 420.89 195.35Z" fill="#786AB5" fill-opacity="1.000000" fill-rule="nonzero"/>
	<path id="Vector" d="M409.5 531.46C409.18 531.46 408.91 531.28 408.82 531.01C407.73 528.3 407.24 526.81 407.19 526.71C407.06 526.31 407.28 525.9 407.69 525.77C408.1 525.63 408.5 525.86 408.64 526.26C408.64 526.26 409.13 527.8 410.22 530.46C410.36 530.87 410.17 531.28 409.81 531.46C409.68 531.46 409.59 531.46 409.5 531.46Z" fill="#786AB5" fill-opacity="1.000000" fill-rule="nonzero"/>
	<path id="Vector" d="M237.24 352.11C235.75 352.11 234.22 352.06 232.72 351.93C232.41 351.93 232.18 351.66 232.18 351.34C232.18 351.03 232.5 350.8 232.77 350.8C235.71 351.03 238.74 351.03 241.72 350.8C242.04 350.8 242.31 351.03 242.31 351.34C242.31 351.66 242.08 351.93 241.76 351.93C240.32 352.06 238.78 352.11 237.24 352.11ZM250.8 350.66C250.53 350.66 250.31 350.48 250.26 350.21C250.22 349.9 250.4 349.62 250.71 349.53C251.39 349.4 252.12 349.22 252.79 349.04C253.11 348.95 253.43 349.13 253.47 349.44C253.56 349.76 253.38 350.08 253.06 350.12C252.34 350.3 251.62 350.44 250.94 350.62C250.85 350.66 250.85 350.66 250.8 350.66ZM223.82 350.66C223.78 350.66 223.73 350.66 223.69 350.66C220.7 350.03 217.76 349.13 214.92 348.04C214.65 347.95 214.46 347.59 214.6 347.32C214.69 347.05 215.05 346.87 215.32 347C218.13 348.04 221.02 348.9 223.91 349.58C224.23 349.62 224.41 349.94 224.36 350.26C224.32 350.48 224.09 350.66 223.82 350.66ZM206.96 344.25C206.87 344.25 206.78 344.2 206.69 344.16C204.02 342.67 201.49 340.99 199.05 339.14C198.83 338.96 198.74 338.6 198.96 338.33C199.14 338.1 199.5 338.01 199.78 338.24C202.13 340.04 204.66 341.72 207.28 343.16C207.55 343.3 207.64 343.66 207.5 343.93C207.32 344.16 207.14 344.25 206.96 344.25ZM192.63 333.27C192.5 333.27 192.32 333.22 192.23 333.09C190.1 330.92 188.11 328.57 186.31 326.13C186.13 325.85 186.17 325.54 186.44 325.31C186.71 325.13 187.03 325.18 187.26 325.45C189.02 327.84 190.96 330.15 193.04 332.27C193.27 332.5 193.27 332.86 193.04 333.09C192.9 333.22 192.77 333.27 192.63 333.27ZM181.92 318.76C181.74 318.76 181.51 318.67 181.42 318.44C179.98 315.78 178.71 313.02 177.63 310.18C177.54 309.9 177.67 309.54 177.94 309.45C178.22 309.36 178.58 309.5 178.67 309.77C179.75 312.57 181.02 315.33 182.42 317.9C182.55 318.17 182.46 318.54 182.19 318.67C182.1 318.72 182.01 318.76 181.92 318.76ZM175.46 301.91C175.19 301.91 174.96 301.73 174.92 301.45C174.19 298.56 173.65 295.53 173.24 292.51C173.2 292.19 173.42 291.92 173.74 291.87C174.06 291.83 174.33 292.06 174.37 292.37C174.73 295.35 175.28 298.34 176 301.18C176.09 301.5 175.91 301.82 175.59 301.86C175.5 301.86 175.46 301.91 175.46 301.91ZM173.15 283.97C172.84 283.97 172.61 283.74 172.57 283.42C172.57 282.97 172.57 282.57 172.57 282.11C172.57 279.54 172.7 276.92 172.88 274.3C172.93 273.98 173.2 273.75 173.51 273.8C173.83 273.84 174.06 274.12 174.01 274.43C173.79 277.01 173.7 279.58 173.7 282.11C173.7 282.57 173.7 282.97 173.7 283.42C173.74 283.7 173.51 283.97 173.15 283.97ZM174.69 265.94C174.64 265.94 174.64 265.94 174.6 265.94C174.28 265.89 174.1 265.57 174.15 265.26C174.37 263.9 174.69 262.5 174.96 261.1C175.32 259.47 175.59 257.89 175.73 256.36C175.77 256.04 176.05 255.81 176.36 255.86C176.68 255.9 176.9 256.18 176.86 256.49C176.72 258.03 176.45 259.66 176.09 261.37C175.77 262.73 175.5 264.13 175.28 265.48C175.19 265.76 174.96 265.94 174.69 265.94ZM175.55 248.09C175.32 248.09 175.1 247.91 175.01 247.68C174.19 244.88 172.84 242.39 170.8 240.13C170.58 239.91 170.62 239.55 170.85 239.32C171.07 239.1 171.44 239.14 171.66 239.37C173.79 241.76 175.28 244.38 176.14 247.36C176.23 247.68 176.05 248 175.73 248.09C175.64 248.09 175.59 248.09 175.55 248.09ZM164.16 234.76C164.07 234.76 163.98 234.71 163.89 234.67C161.58 233.31 158.96 232.05 155.8 230.83C155.53 230.69 155.34 230.37 155.48 230.1C155.62 229.83 155.93 229.65 156.2 229.79C159.41 231.05 162.12 232.32 164.47 233.72C164.75 233.9 164.84 234.21 164.66 234.49C164.57 234.67 164.38 234.76 164.16 234.76ZM147.44 227.93C147.39 227.93 147.34 227.93 147.25 227.89C144.27 226.98 141.15 226.08 138.53 225.36C138.21 225.27 138.03 224.95 138.12 224.68C138.21 224.36 138.53 224.18 138.8 224.27C141.42 225 144.54 225.86 147.53 226.8C147.84 226.89 147.98 227.21 147.89 227.53C147.89 227.75 147.66 227.93 147.44 227.93ZM129.94 222.96C129.9 222.96 129.85 222.96 129.81 222.96C126.37 222.01 123.62 221.2 121.08 220.39C120.77 220.3 120.63 219.98 120.72 219.66C120.81 219.35 121.13 219.21 121.45 219.3C123.98 220.07 126.73 220.93 130.12 221.88C130.44 221.97 130.62 222.29 130.53 222.56C130.44 222.78 130.21 222.96 129.94 222.96ZM112.68 217.5C112.63 217.5 112.54 217.5 112.5 217.45C109.47 216.32 106.71 215.15 104.09 213.93C103.82 213.79 103.68 213.47 103.82 213.16C103.95 212.89 104.27 212.75 104.59 212.89C107.16 214.11 109.88 215.24 112.9 216.37C113.17 216.46 113.36 216.82 113.22 217.09C113.13 217.31 112.9 217.5 112.68 217.5ZM96.36 209.68C96.27 209.68 96.13 209.63 96.04 209.59C93.38 207.92 90.89 206.11 88.68 204.21C88.45 203.98 88.41 203.67 88.63 203.4C88.86 203.17 89.17 203.13 89.44 203.35C91.61 205.2 94.06 206.97 96.68 208.64C96.95 208.82 97.04 209.14 96.86 209.41C96.72 209.59 96.54 209.68 96.36 209.68ZM82.76 197.88C82.57 197.88 82.44 197.79 82.3 197.66C80.41 195.31 78.69 192.73 77.29 190.07C77.15 189.8 77.24 189.43 77.51 189.3C77.78 189.16 78.15 189.25 78.28 189.52C79.68 192.14 81.31 194.63 83.16 196.93C83.34 197.16 83.34 197.52 83.07 197.75C82.98 197.84 82.89 197.88 82.76 197.88ZM316.3 182.43C316.07 182.43 315.84 182.25 315.75 182.02C314.9 179.13 313.99 176.24 313.04 173.39C312.95 173.08 313.09 172.76 313.4 172.67C313.72 172.58 314.04 172.71 314.13 173.03C315.08 175.88 316.03 178.77 316.84 181.71C316.93 182.02 316.75 182.34 316.48 182.43C316.39 182.43 316.34 182.43 316.3 182.43ZM74.3 182.07C74.08 182.07 73.85 181.93 73.76 181.66C72.86 178.86 72.18 175.88 71.73 172.8C71.68 172.49 71.91 172.22 72.18 172.17C72.5 172.13 72.77 172.35 72.81 172.62C73.26 175.65 73.94 178.59 74.8 181.3C74.89 181.62 74.71 181.93 74.44 182.02C74.44 182.07 74.39 182.07 74.3 182.07ZM310.47 165.26C310.24 165.26 310.01 165.12 309.92 164.9C308.84 162.1 307.66 159.29 306.49 156.54C306.35 156.27 306.49 155.9 306.76 155.77C307.03 155.63 307.39 155.77 307.53 156.04C308.75 158.8 309.92 161.6 311.01 164.44C311.14 164.72 310.96 165.08 310.69 165.17C310.6 165.26 310.56 165.26 310.47 165.26ZM71.5 164.35C71.18 164.35 70.96 164.13 70.91 163.81C70.87 162.95 70.87 162.1 70.87 161.24C70.87 159.11 70.96 156.94 71.09 154.73C71.09 154.41 71.37 154.19 71.68 154.19C72 154.19 72.22 154.46 72.22 154.77C72.09 156.99 72 159.16 72 161.24C72 162.1 72 162.95 72.04 163.77C72.09 164.08 71.82 164.31 71.5 164.35ZM163.12 159.38C161.45 159.38 159.77 159.29 158.1 159.07C157.78 159.02 157.56 158.75 157.6 158.43C157.65 158.12 157.92 157.89 158.24 157.94C161.17 158.3 164.2 158.34 167.14 158.03C167.46 157.98 167.73 158.21 167.77 158.53C167.82 158.84 167.59 159.11 167.28 159.16C165.88 159.34 164.47 159.38 163.12 159.38ZM176.05 157.26C175.82 157.26 175.59 157.12 175.5 156.9C175.41 156.58 175.55 156.27 175.86 156.17C178.67 155.23 181.38 153.92 183.91 152.33C184.18 152.15 184.54 152.24 184.68 152.52C184.86 152.79 184.77 153.15 184.5 153.28C181.88 154.91 179.12 156.22 176.23 157.21C176.14 157.21 176.09 157.26 176.05 157.26ZM149.38 156.99C149.33 156.99 149.24 156.99 149.2 156.94C146.31 155.9 143.5 154.55 140.97 152.92C140.7 152.74 140.61 152.42 140.79 152.15C140.97 151.88 141.33 151.79 141.56 151.97C144.05 153.55 146.71 154.87 149.56 155.9C149.88 155.99 150.01 156.36 149.92 156.63C149.83 156.85 149.6 156.99 149.38 156.99ZM303.14 148.72C302.92 148.72 302.74 148.58 302.65 148.4C301.29 145.69 299.89 143.03 298.4 140.45C298.26 140.18 298.35 139.82 298.62 139.68C298.9 139.55 299.26 139.64 299.39 139.91C300.88 142.53 302.29 145.19 303.64 147.95C303.78 148.22 303.69 148.58 303.37 148.72C303.32 148.72 303.23 148.72 303.14 148.72ZM191.19 147.68C191.05 147.68 190.92 147.64 190.83 147.54C190.6 147.32 190.55 146.96 190.78 146.73C192.81 144.47 194.35 141.94 195.35 139.23C195.44 138.91 195.75 138.78 196.07 138.87C196.39 138.96 196.52 139.32 196.43 139.59C195.39 142.44 193.81 145.1 191.64 147.45C191.5 147.59 191.37 147.68 191.19 147.68ZM134.28 147.27C134.15 147.27 133.97 147.23 133.88 147.09C131.75 144.83 129.94 142.3 128.5 139.64C128.36 139.37 128.45 139 128.72 138.87C128.99 138.73 129.36 138.82 129.49 139.09C130.85 141.67 132.61 144.11 134.69 146.28C134.92 146.5 134.92 146.87 134.64 147.09C134.55 147.23 134.42 147.27 134.28 147.27ZM72.63 146.28C72.59 146.28 72.59 146.28 72.54 146.28C72.22 146.23 72 145.96 72.04 145.65C72.45 142.75 72.99 139.77 73.63 136.7C73.67 136.38 73.99 136.2 74.3 136.25C74.62 136.29 74.8 136.61 74.76 136.92C74.12 139.95 73.58 142.94 73.17 145.83C73.17 146.1 72.95 146.28 72.63 146.28ZM294.29 132.95C294.1 132.95 293.92 132.86 293.79 132.68C292.16 130.15 290.49 127.62 288.73 125.18C288.54 124.91 288.59 124.59 288.86 124.41C289.13 124.23 289.45 124.27 289.63 124.54C291.39 126.98 293.06 129.51 294.69 132.09C294.87 132.36 294.78 132.72 294.51 132.86C294.47 132.9 294.38 132.95 294.29 132.95ZM125.97 131.46C125.69 131.46 125.47 131.28 125.42 131C124.97 128.84 124.75 126.58 124.75 124.32C124.75 123.5 124.79 122.65 124.84 121.83C124.84 121.52 125.11 121.29 125.42 121.29C125.74 121.29 125.97 121.56 125.97 121.88C125.92 122.69 125.88 123.5 125.88 124.27C125.88 126.44 126.1 128.61 126.51 130.73C126.55 131.05 126.37 131.32 126.06 131.41C126.01 131.46 125.97 131.46 125.97 131.46ZM197.15 131.05C196.84 131.05 196.61 130.83 196.57 130.51C196.43 127.71 195.89 124.82 194.85 121.83C194.76 121.52 194.89 121.2 195.21 121.11C195.53 121.02 195.84 121.15 195.93 121.47C196.97 124.54 197.56 127.57 197.7 130.46C197.74 130.78 197.52 131.05 197.15 131.05ZM76.34 128.57C76.29 128.57 76.25 128.57 76.2 128.57C75.89 128.48 75.7 128.16 75.79 127.89C76.61 124.91 77.56 121.97 78.51 119.21C78.6 118.9 78.96 118.76 79.23 118.85C79.55 118.94 79.68 119.3 79.59 119.57C78.6 122.28 77.69 125.18 76.88 128.16C76.83 128.39 76.61 128.57 76.34 128.57ZM283.75 118.22C283.57 118.22 283.44 118.13 283.3 117.99C281.4 115.64 279.41 113.34 277.43 111.12C277.2 110.9 277.25 110.54 277.47 110.31C277.7 110.08 278.06 110.13 278.29 110.36C280.32 112.57 282.31 114.87 284.21 117.27C284.39 117.49 284.34 117.86 284.12 118.08C283.98 118.17 283.84 118.22 283.75 118.22ZM191.59 114.02C191.41 114.02 191.23 113.92 191.1 113.74C189.65 111.26 187.93 108.82 185.94 106.38C185.76 106.15 185.76 105.79 186.03 105.57C186.26 105.38 186.62 105.38 186.85 105.66C188.84 108.1 190.6 110.63 192.09 113.16C192.23 113.43 192.14 113.79 191.91 113.92C191.82 114.02 191.73 114.02 191.59 114.02ZM127.1 113.61C127.05 113.61 126.96 113.61 126.91 113.56C126.6 113.47 126.46 113.16 126.55 112.84C127.46 110.04 128.63 107.24 130.17 104.44C130.3 104.16 130.67 104.07 130.94 104.21C131.21 104.35 131.3 104.71 131.16 104.98C129.67 107.69 128.5 110.49 127.64 113.2C127.55 113.43 127.37 113.61 127.1 113.61ZM82.48 111.58C82.39 111.58 82.3 111.58 82.26 111.53C81.99 111.39 81.85 111.08 81.99 110.76C83.3 107.91 84.74 105.2 86.28 102.72C86.46 102.45 86.78 102.36 87.05 102.54C87.32 102.72 87.41 103.03 87.23 103.31C85.74 105.75 84.29 108.41 82.98 111.21C82.94 111.44 82.71 111.58 82.48 111.58ZM271.55 104.84C271.41 104.84 271.28 104.8 271.14 104.66C268.97 102.58 266.71 100.5 264.45 98.61C264.23 98.43 264.18 98.06 264.41 97.79C264.59 97.57 264.95 97.52 265.22 97.75C267.48 99.69 269.79 101.77 271.96 103.85C272.18 104.07 272.18 104.44 271.96 104.66C271.87 104.8 271.69 104.84 271.55 104.84ZM180.29 99.96C180.16 99.96 180.02 99.92 179.89 99.83C177.76 97.79 175.46 95.8 173.06 94C172.84 93.82 172.75 93.45 172.97 93.18C173.15 92.91 173.51 92.87 173.79 93.09C176.23 94.95 178.58 96.93 180.7 99.01C180.93 99.24 180.93 99.6 180.7 99.83C180.57 99.87 180.43 99.96 180.29 99.96ZM135.59 97.66C135.46 97.66 135.37 97.61 135.28 97.57C135 97.39 134.96 97.02 135.14 96.75C136.41 95.08 137.76 93.36 139.25 91.69C139.84 91.06 140.43 90.38 141.02 89.79C141.24 89.57 141.6 89.57 141.83 89.79C142.06 90.02 142.06 90.38 141.83 90.61C141.24 91.24 140.66 91.87 140.07 92.51C138.62 94.13 137.27 95.8 136 97.48C135.91 97.61 135.73 97.66 135.59 97.66ZM92.02 96.21C91.89 96.21 91.75 96.17 91.66 96.08C91.43 95.89 91.39 95.53 91.57 95.26C93.56 92.87 95.68 90.65 97.94 88.71C98.17 88.48 98.53 88.53 98.76 88.76C98.98 88.98 98.94 89.34 98.71 89.57C96.54 91.47 94.42 93.64 92.47 95.99C92.34 96.17 92.2 96.21 92.02 96.21ZM257.76 93.14C257.63 93.14 257.54 93.09 257.45 93.05C255.01 91.24 252.52 89.52 250.04 87.94C249.76 87.76 249.67 87.44 249.86 87.17C250.04 86.9 250.35 86.81 250.62 86.99C253.15 88.62 255.69 90.34 258.13 92.14C258.4 92.32 258.44 92.69 258.26 92.96C258.13 93.05 257.95 93.14 257.76 93.14ZM165.92 88.98C165.83 88.98 165.74 88.94 165.65 88.89C163.07 87.31 160.41 85.91 157.7 84.64C157.42 84.51 157.29 84.19 157.42 83.87C157.56 83.6 157.88 83.47 158.19 83.6C160.9 84.87 163.62 86.31 166.24 87.9C166.51 88.08 166.6 88.39 166.42 88.66C166.28 88.85 166.1 88.98 165.92 88.98ZM148.16 84.73C147.98 84.73 147.84 84.64 147.71 84.51C147.53 84.28 147.57 83.92 147.8 83.69C150.19 81.84 152.72 80.17 155.39 78.63C155.66 78.5 156.02 78.59 156.16 78.86C156.29 79.13 156.2 79.49 155.93 79.63C153.31 81.12 150.82 82.79 148.47 84.6C148.43 84.69 148.29 84.73 148.16 84.73ZM105.67 84.46C105.49 84.46 105.26 84.37 105.17 84.19C105.04 83.92 105.13 83.56 105.4 83.42C108.02 81.89 110.82 80.62 113.72 79.63C114.03 79.54 114.35 79.67 114.44 79.99C114.53 80.3 114.39 80.62 114.08 80.71C111.28 81.66 108.52 82.93 105.94 84.42C105.85 84.42 105.76 84.46 105.67 84.46ZM242.49 83.42C242.4 83.42 242.31 83.42 242.22 83.38C239.55 81.93 236.84 80.62 234.13 79.4C233.85 79.27 233.72 78.95 233.85 78.63C233.99 78.36 234.31 78.23 234.62 78.36C237.38 79.58 240.14 80.94 242.8 82.38C243.08 82.52 243.17 82.88 243.03 83.15C242.89 83.29 242.71 83.42 242.49 83.42ZM149.47 81.39C149.42 81.39 149.33 81.39 149.29 81.34C146.39 80.4 143.46 79.63 140.56 79.13C140.25 79.08 140.07 78.77 140.11 78.45C140.16 78.14 140.47 77.96 140.79 78C143.73 78.54 146.71 79.31 149.65 80.26C149.97 80.35 150.1 80.67 150.01 80.98C149.97 81.21 149.74 81.39 149.47 81.39ZM122.67 78.59C122.39 78.59 122.12 78.36 122.12 78.09C122.08 77.77 122.3 77.5 122.62 77.46C125.56 77.05 128.63 76.87 131.75 76.96C132.07 76.96 132.29 77.23 132.29 77.55C132.29 77.86 132.02 78.09 131.71 78.09C128.63 78 125.65 78.14 122.76 78.54C122.76 78.59 122.71 78.59 122.67 78.59ZM225.95 76.1C225.9 76.1 225.81 76.1 225.76 76.06C222.92 75.06 220.02 74.2 217.13 73.44C216.81 73.35 216.63 73.03 216.72 72.76C216.81 72.44 217.13 72.26 217.4 72.35C220.3 73.12 223.23 73.98 226.13 74.97C226.44 75.06 226.58 75.38 226.49 75.7C226.4 75.97 226.17 76.1 225.95 76.1ZM163.84 75.79C163.62 75.79 163.39 75.65 163.3 75.42C163.16 75.15 163.34 74.79 163.62 74.7C166.42 73.57 169.31 72.62 172.29 71.85C172.61 71.76 172.93 71.94 172.97 72.26C173.06 72.58 172.88 72.89 172.57 72.94C169.63 73.71 166.78 74.66 164.02 75.74C164.02 75.79 163.93 75.79 163.84 75.79ZM208.41 71.58C208.36 71.58 208.36 71.58 208.32 71.58C205.33 71.09 202.31 70.73 199.37 70.54C199.05 70.54 198.83 70.27 198.83 69.96C198.83 69.64 199.1 69.41 199.41 69.41C202.4 69.6 205.42 69.96 208.45 70.45C208.77 70.5 208.95 70.82 208.91 71.09C208.91 71.4 208.68 71.58 208.41 71.58ZM181.33 71.18C181.06 71.18 180.79 70.95 180.79 70.68C180.75 70.36 180.97 70.09 181.29 70.05C184.27 69.64 187.3 69.37 190.37 69.28C190.69 69.23 190.96 69.51 190.96 69.82C190.96 70.14 190.74 70.41 190.42 70.41C187.39 70.5 184.36 70.77 181.47 71.18C181.38 71.18 181.38 71.18 181.33 71.18Z" fill="#FF443C" fill-opacity="1.000000" fill-rule="nonzero"/>
	<path id="Vector" d="M91.57 140.36L66.66 140.36C65.31 140.36 64.18 139.28 64.18 137.87L64.18 123.32C64.18 121.97 65.26 120.84 66.66 120.84L91.57 120.84C92.92 120.84 94.05 121.92 94.05 123.32L94.05 137.87C94.05 139.23 92.92 140.36 91.57 140.36Z" fill="#FF443C" fill-opacity="1.000000" fill-rule="nonzero"/>
	<path id="Vector" d="M93.83 138.87L79.09 129.97L64.4 138.87C64.77 139.73 65.67 140.36 66.66 140.36L91.57 140.36C92.56 140.36 93.47 139.73 93.83 138.87Z" fill="#FF443C" fill-opacity="1.000000" fill-rule="nonzero"/>
	<path id="Vector" d="M64.4 122.33L79.14 132.36L93.83 122.38C93.47 121.52 92.56 120.88 91.57 120.88L66.66 120.88C65.67 120.84 64.81 121.47 64.4 122.33Z" fill="#FF443C" fill-opacity="1.000000" fill-rule="nonzero"/>
	<path id="Vector" d="M79.14 132.63L64.27 122.51L64.54 122.15L79.14 132.09L93.69 122.15L93.96 122.56L79.14 132.63Z" fill="#66192D" fill-opacity="1.000000" fill-rule="nonzero"/>
	<path id="Vector" d="M567.69 191.6L542.79 191.6C541.43 191.6 540.3 190.52 540.3 189.12L540.3 174.57C540.3 173.21 541.39 172.08 542.79 172.08L567.69 172.08C569.05 172.08 570.18 173.17 570.18 174.57L570.18 189.12C570.13 190.52 569.05 191.6 567.69 191.6Z" fill="#786AB5" fill-opacity="1.000000" fill-rule="nonzero"/>
	<path id="Vector" d="M569.91 190.11L555.17 181.21L540.48 190.11C540.84 190.97 541.75 191.6 542.74 191.6L567.65 191.6C568.69 191.6 569.54 191.01 569.91 190.11Z" fill="#786AB5" fill-opacity="1.000000" fill-rule="nonzero"/>
	<path id="Vector" d="M540.53 173.57L555.26 183.6L569.95 173.62C569.59 172.76 568.69 172.13 567.69 172.13L542.79 172.13C541.75 172.13 540.89 172.71 540.53 173.57Z" fill="#786AB5" fill-opacity="1.000000" fill-rule="nonzero"/>
	<path id="Vector" d="M555.22 183.88L540.39 173.8L540.66 173.39L555.22 183.33L569.82 173.44L570.09 173.8L555.22 183.88Z" fill="#66192D" fill-opacity="1.000000" fill-rule="nonzero"/>
	<path id="Vector" d="M669.21 521.79L644.3 521.79C642.95 521.79 641.82 520.7 641.82 519.3L641.82 504.75C641.82 503.4 642.9 502.27 644.3 502.27L669.21 502.27C670.56 502.27 671.69 503.35 671.69 504.75L671.69 519.3C671.65 520.66 670.56 521.79 669.21 521.79Z" fill="#FF8548" fill-opacity="1.000000" fill-rule="nonzero"/>
	<path id="Vector" d="M671.47 520.3L656.73 511.4L642.04 520.3C642.4 521.16 643.31 521.79 644.3 521.79L669.21 521.79C670.2 521.79 671.06 521.16 671.47 520.3Z" fill="#FF8548" fill-opacity="1.000000" fill-rule="nonzero"/>
	<path id="Vector" d="M642.04 503.76L656.78 513.79L671.47 503.8C671.11 502.95 670.2 502.31 669.21 502.31L644.3 502.31C643.31 502.31 642.4 502.9 642.04 503.76Z" fill="#FF8548" fill-opacity="1.000000" fill-rule="nonzero"/>
	<path id="Vector" d="M656.78 514.06L641.91 503.94L642.18 503.58L656.78 513.52L671.33 503.58L671.6 503.99L656.78 514.06Z" fill="#66192D" fill-opacity="1.000000" fill-rule="nonzero"/>
	<path id="Vector" d="M133.02 350.26L108.11 350.26C106.76 350.26 105.63 349.17 105.63 347.77L105.63 333.22C105.63 331.87 106.71 330.74 108.11 330.74L133.02 330.74C134.37 330.74 135.5 331.82 135.5 333.22L135.5 347.77C135.5 349.17 134.37 350.26 133.02 350.26Z" fill="#FFBA41" fill-opacity="1.000000" fill-rule="nonzero"/>
	<path id="Vector" d="M135.28 348.81L120.54 339.91L105.85 348.81C106.21 349.67 107.12 350.3 108.11 350.3L133.02 350.3C134.06 350.26 134.91 349.67 135.28 348.81Z" fill="#FFBA41" fill-opacity="1.000000" fill-rule="nonzero"/>
	<path id="Vector" d="M105.9 332.27L120.63 342.3L135.32 332.32C134.96 331.46 134.06 330.83 133.06 330.83L108.16 330.83C107.12 330.78 106.26 331.37 105.9 332.27Z" fill="#FFBA41" fill-opacity="1.000000" fill-rule="nonzero"/>
	<path id="Vector" d="M120.59 342.58L105.76 332.45L105.99 332.05L120.59 341.99L135.14 332.09L135.41 332.45L120.59 342.58Z" fill="#66192D" fill-opacity="1.000000" fill-rule="nonzero"/>
</svg>
